<svg width="16" height="16" viewBox="0 0 16 16" fill="none" xmlns="http://www.w3.org/2000/svg">
<path d="M12.5 6H11V4C11 3.20435 10.6839 2.44129 10.1213 1.87868C9.55871 1.31607 8.79565 1 8 1C7.20435 1 6.44129 1.31607 5.87868 1.87868C5.31607 2.44129 5 3.20435 5 4V6H3.5C3.36739 6 3.24021 6.05268 3.14645 6.14645C3.05268 6.24021 3 6.36739 3 6.5V14.5C3 14.6326 3.05268 14.7598 3.14645 14.8536C3.24021 14.9473 3.36739 15 3.5 15H12.5C12.6326 15 12.7598 14.9473 12.8536 14.8536C12.9473 14.7598 13 14.6326 13 14.5V6.5C13 6.36739 12.9473 6.24021 12.8536 6.14645C12.7598 6.05268 12.6326 6 12.5 6ZM7 4C7 3.73478 7.10536 3.48043 7.29289 3.29289C7.48043 3.10536 7.73478 3 8 3C8.26522 3 8.51957 3.10536 8.70711 3.29289C8.89464 3.48043 9 3.73478 9 4V6H7V4ZM8 12.5C7.60444 12.5 7.21776 12.3827 6.88886 12.1629C6.55996 11.9432 6.30362 11.6308 6.15224 11.2654C6.00087 10.8999 5.96126 10.4978 6.03843 10.1098C6.1156 9.72186 6.30608 9.36549 6.58579 9.08579C6.86549 8.80608 7.22186 8.6156 7.60982 8.53843C7.99778 8.46126 8.39991 8.50087 8.76537 8.65224C9.13082 8.80362 9.44318 9.05996 9.66294 9.38886C9.8827 9.71776 10 10.1044 10 10.5C10 11.0304 9.78929 11.5391 9.41421 11.9142C9.03914 12.2893 8.53043 12.5 8 12.5Z" fill="#FFD54F"/>
</svg>
