<svg width="16" height="16" viewBox="0 0 16 16" fill="none" xmlns="http://www.w3.org/2000/svg">
<path d="M14.2383 2.85541C11.4765 2.73716 8.94054 4.43641 7.99979 7.03566C7.05879 4.43641 4.52304 2.73716 1.76129 2.85541C1.71668 3.93448 1.94737 5.00716 2.43165 5.97249C2.91593 6.93782 3.63788 7.76405 4.52954 8.37341C4.987 8.68798 5.36086 9.10934 5.61875 9.60099C5.87664 10.0926 6.01078 10.6397 6.00954 11.1949V13.1487H9.99054V11.1949C9.98931 10.6397 10.1234 10.0926 10.3813 9.60099C10.6392 9.10934 11.0131 8.68798 11.4705 8.37341C12.3625 7.76436 13.0847 6.93818 13.5689 5.97277C14.0532 5.00737 14.2837 3.93453 14.2385 2.85541H14.2383Z" fill="#FF4081"/>
</svg>
