<svg width="16" height="16" viewBox="0 0 16 16" fill="none" xmlns="http://www.w3.org/2000/svg">
<path d="M15.3924 3.07031C15.3924 3.07031 13.0605 4.43525 13.0036 4.45418C12.9467 4.49205 12.89 4.53018 12.852 4.56805C12.6624 4.75751 12.6056 5.02271 12.6624 5.26938C12.7004 5.38298 12.7572 5.51591 12.852 5.61071C12.9468 5.70538 13.0605 5.76231 13.1932 5.80031C13.4396 5.85711 13.7052 5.80031 13.8948 5.61071C13.9515 5.55382 13.9893 5.49693 14.0083 5.44005L14.0273 5.38311L14.3687 4.75751L15.3924 3.07031ZM10.1788 4.30258C6.52 4.30258 5.91347 6.04658 5.91347 8.20791C5.91347 8.71965 5.98934 9.26951 5.64814 9.80018C5.13614 10.5964 4.45387 10.5772 4.28334 10.5772C4.05587 10.5772 3.22174 10.4448 3.18387 10.1984H3.3164C4.20734 10.1984 4.8708 9.47791 4.8708 8.51111V8.16978H4.11267C3.56294 8.16978 3.07 8.41631 2.7476 8.85245C2.42534 8.41631 1.93254 8.16978 1.3828 8.16978H0.605469V8.51111C0.605469 9.45911 1.36387 10.2171 2.31174 10.2171H2.55814C2.55814 10.767 3.3164 12.928 8.9088 12.928C11.0891 12.928 14.3308 12.549 14.3308 8.43511C14.3308 7.65791 14.0844 6.93778 13.7053 6.33111C13.5725 6.36898 13.4397 6.40685 13.288 6.40685C13.131 6.40748 12.9754 6.37702 12.8302 6.31723C12.6851 6.25743 12.5532 6.16949 12.4422 6.05846C12.3311 5.94743 12.2432 5.81553 12.1834 5.67034C12.1237 5.52516 12.0932 5.36958 12.0939 5.21258C12.0939 5.07987 12.1128 4.94716 12.1505 4.81445C11.5819 4.45418 11.0132 4.30271 10.1789 4.30271L10.1788 4.30258Z" fill="#1E88E5"/>
</svg>
