<svg width="16" height="16" viewBox="0 0 16 16" fill="none" xmlns="http://www.w3.org/2000/svg">
<g clip-path="url(#clip0_43_997)">
<path d="M8.87514 1.39163C10.1322 0.202802 12.1591 0.202775 13.4162 1.39163C14.6891 2.59587 14.689 4.56044 13.4162 5.76468L6.67104 12.1465C5.94608 12.8324 4.78176 12.8323 4.05678 12.1465C3.31607 11.4458 3.31607 10.2975 4.05678 9.59671L9.97572 3.9971C10.1763 3.80733 10.493 3.81604 10.6828 4.01663C10.8724 4.21724 10.8638 4.53392 10.6632 4.72366L4.74428 10.3233C4.42059 10.6295 4.42059 11.1137 4.74428 11.42C5.0837 11.7409 5.64416 11.741 5.98354 11.42L12.7296 5.03909C13.5855 4.22939 13.5855 2.92792 12.7296 2.1182C11.858 1.2936 10.4333 1.2936 9.56166 2.1182L2.54115 8.76077C1.15324 10.074 1.15316 12.1908 2.54115 13.5039C3.94497 14.832 6.23206 14.832 7.63588 13.5039L14.6564 6.86234C14.857 6.67256 15.1736 6.68127 15.3634 6.88187C15.5529 7.08238 15.5441 7.39818 15.3439 7.58792L8.32338 14.2305C6.534 15.9234 3.64303 15.9234 1.85365 14.2305C0.0487401 12.5228 0.0488237 9.74192 1.85365 8.03421L8.87514 1.39163Z" fill="currentColor"/>
</g>
<defs>
<clipPath id="clip0_43_997">
<rect width="16" height="16" fill="white"/>
</clipPath>
</defs>
</svg>
