<svg width="16" height="16" viewBox="0 0 16 16" fill="none" xmlns="http://www.w3.org/2000/svg">
<path d="M12.0003 6.66671L9.33368 4.00004M1.66699 14.3334L3.92324 14.0827C4.1989 14.0521 4.33673 14.0367 4.46556 13.995C4.57985 13.958 4.68862 13.9058 4.78892 13.8396C4.90196 13.7651 5.00002 13.667 5.19614 13.4709L14.0003 4.66671C14.7367 3.93033 14.7367 2.73642 14.0003 2.00004C13.264 1.26366 12.0701 1.26366 11.3337 2.00004L2.52948 10.8042C2.33336 11.0003 2.2353 11.0984 2.16075 11.2114C2.09461 11.3117 2.04234 11.4205 2.00533 11.5348C1.96363 11.6636 1.94831 11.8015 1.91769 12.0771L1.66699 14.3334Z" stroke="currentColor" stroke-linecap="round" stroke-linejoin="round"/>
</svg>
