<svg width="16" height="16" viewBox="0 0 16 16" fill="none" xmlns="http://www.w3.org/2000/svg">
<path d="M10.9806 1.6453C11.9123 0.714075 13.4221 0.714774 14.3536 1.64628C15.2852 2.57792 15.2853 4.0877 14.3536 5.01932L5.54993 13.824C5.36803 14.0059 5.22976 14.1477 5.06458 14.2566C4.92667 14.3476 4.77642 14.4196 4.61927 14.4705C4.43114 14.5313 4.23413 14.5505 3.97864 14.5789L1.72278 14.8299C1.57185 14.8466 1.421 14.7937 1.3136 14.6863C1.2062 14.5789 1.15327 14.4281 1.17005 14.2771L1.42102 12.0213C1.44944 11.7655 1.46846 11.568 1.52942 11.3797C1.58029 11.2226 1.65241 11.0732 1.74329 10.9353C1.85223 10.7701 1.994 10.6319 2.17591 10.45L10.9806 1.6453ZM2.88294 11.157C2.67272 11.3672 2.61838 11.4253 2.57825 11.4861C2.53694 11.5488 2.50468 11.6169 2.48157 11.6883C2.45912 11.7576 2.448 11.8361 2.41516 12.1316L2.23255 13.7664L3.86829 13.5848C4.16371 13.5519 4.2423 13.5408 4.31165 13.5183C4.38304 13.4952 4.45115 13.463 4.5138 13.4217C4.57465 13.3815 4.63268 13.3272 4.8429 13.117L11.2931 6.66581L9.33313 4.70585L2.88294 11.157ZM13.6466 2.35331C13.1055 1.81219 12.2287 1.81219 11.6876 2.35331L10.0402 3.99882L12.0001 5.95878L13.6466 4.31229C14.1877 3.77119 14.1877 2.89443 13.6466 2.35331Z" fill="currentColor"/>
</svg>
