<svg width="16" height="16" viewBox="0 0 16 16" fill="none" xmlns="http://www.w3.org/2000/svg">
<path d="M7.33366 3.00033L4.86699 3.00033C3.74689 3.00033 3.18683 3.00033 2.75901 3.21831C2.38269 3.41006 2.07673 3.71602 1.88498 4.09234C1.66699 4.52017 1.66699 5.08022 1.66699 6.20033L1.66699 10.467C1.66699 11.5871 1.66699 12.1471 1.88498 12.575C2.07673 12.9513 2.38269 13.2573 2.75901 13.449C3.18683 13.667 3.74689 13.667 4.86699 13.667L11.8003 13.667C12.9204 13.667 13.4805 13.667 13.9083 13.449C14.2846 13.2573 14.5906 12.9513 14.7823 12.575C15.0003 12.1471 15.0003 11.5871 15.0003 10.467L15.0003 8.33366M14.3337 4.33366L10.3337 4.33366M12.3337 6.33366L12.3337 2.33366" stroke="currentColor" stroke-linecap="round" stroke-linejoin="round"/>
</svg>
