<svg width="16" height="16" viewBox="0 0 16 16" fill="none" xmlns="http://www.w3.org/2000/svg">
<path d="M14.334 4.83398L12.834 4.83398L12.834 6.33398C12.8338 6.60987 12.6099 6.83381 12.334 6.83398C12.058 6.83398 11.8342 6.60998 11.834 6.33398L11.834 4.83398L10.334 4.83398C10.058 4.83398 9.83416 4.60998 9.83398 4.33398C9.83398 4.05784 10.0578 3.83398 10.334 3.83398L11.834 3.83398L11.834 2.33398C11.834 2.05784 12.0578 1.83398 12.334 1.83398C12.61 1.83416 12.834 2.05795 12.834 2.33398L12.834 3.83398L14.334 3.83398C14.61 3.83416 14.834 4.05795 14.834 4.33398C14.8338 4.60987 14.6099 4.83381 14.334 4.83398ZM7.33398 3.5L4.86719 3.5C4.29888 3.5 3.90217 3.50117 3.59375 3.52637C3.29153 3.55109 3.11793 3.59704 2.98633 3.66406C2.70409 3.80787 2.47389 4.03709 2.33008 4.31934C2.26303 4.45099 2.21709 4.62527 2.19238 4.92773C2.16721 5.23609 2.16699 5.63215 2.16699 6.2002L2.16699 10.4668C2.16699 11.0351 2.16718 11.4318 2.19238 11.7402C2.21709 12.0423 2.26313 12.2161 2.33008 12.3477C2.47389 12.6299 2.70408 12.8601 2.98633 13.0039C3.11791 13.0709 3.2917 13.1169 3.59375 13.1416C3.90217 13.1668 4.29888 13.167 4.86719 13.167L11.8008 13.167C12.3688 13.167 12.7649 13.1668 13.0732 13.1416C13.3758 13.1169 13.55 13.071 13.6816 13.0039C13.9638 12.8601 14.1931 12.6299 14.3369 12.3477C14.4039 12.2161 14.4499 12.0424 14.4746 11.7402C14.4998 11.4318 14.5 11.0351 14.5 10.4668L14.5 8.33398C14.5 8.05795 14.724 7.83416 15 7.83398C15.2761 7.83398 15.5 8.05784 15.5 8.33398L15.5 10.4668C15.5 11.0186 15.501 11.4627 15.4717 11.8213C15.4419 12.1857 15.3784 12.5056 15.2275 12.8018C14.9879 13.272 14.606 13.6548 14.1357 13.8945C13.8396 14.0454 13.5187 14.1079 13.1543 14.1377C12.7959 14.167 12.3522 14.167 11.8008 14.167L4.86719 14.167C4.31539 14.167 3.87128 14.167 3.5127 14.1377C3.14835 14.1079 2.82832 14.0454 2.53223 13.8945C2.06182 13.6548 1.67914 13.2722 1.43945 12.8018C1.28863 12.5057 1.22606 12.1856 1.19629 11.8213C1.16699 11.4627 1.16699 11.0186 1.16699 10.4668L1.16699 6.2002C1.16699 5.64845 1.16699 5.20426 1.19629 4.8457C1.22607 4.48142 1.28861 4.16129 1.43945 3.86523C1.67914 3.39487 2.06185 3.01213 2.53223 2.77246C2.82829 2.62168 3.1484 2.55906 3.51269 2.5293C3.87128 2.5 4.31539 2.5 4.86719 2.5L7.33398 2.5C7.60987 2.50018 7.83381 2.72412 7.83398 3C7.83398 3.27603 7.60998 3.49982 7.33398 3.5Z" fill="currentColor"/>
</svg>
