<svg width="16" height="16" viewBox="0 0 16 16" fill="none" xmlns="http://www.w3.org/2000/svg">
<path d="M1.5 8.99988C1.5 7.06688 3.067 5.49988 5 5.49988H12.793L10.9795 3.6864C10.7844 3.49118 10.7844 3.17459 10.9795 2.97937C11.1747 2.78417 11.4912 2.78427 11.6865 2.97937L14.3535 5.64637C14.5486 5.84164 14.5487 6.15819 14.3535 6.3534L11.6865 9.01941C11.4913 9.21467 11.1748 9.21467 10.9795 9.01941C10.7846 8.82412 10.7843 8.50753 10.9795 8.31238L12.793 6.49988H5C3.61929 6.49988 2.5 7.61917 2.5 8.99988C2.50018 10.3804 3.6194 11.4999 5 11.4999H8C8.27614 11.4999 8.5 11.7237 8.5 11.9999C8.49982 12.2759 8.27603 12.4999 8 12.4999H5C3.06711 12.4999 1.50018 10.9327 1.5 8.99988Z" fill="currentColor"/>
</svg>
