<svg width="16" height="16" viewBox="0 0 16 16" fill="none" xmlns="http://www.w3.org/2000/svg">
<path d="M13.4999 8.99988C13.4999 7.61917 12.3806 6.49988 10.9999 6.49988H3.20691L5.02039 8.31238C5.21554 8.50753 5.21533 8.82412 5.02039 9.01941C4.82513 9.21467 4.50862 9.21467 4.31336 9.01941L1.64637 6.3534C1.45116 6.15819 1.45127 5.84164 1.64637 5.64637L4.31336 2.97937C4.50863 2.78427 4.82518 2.78417 5.02039 2.97937C5.21543 3.17459 5.21543 3.49118 5.02039 3.6864L3.20691 5.49988H10.9999C12.9329 5.49988 14.4999 7.06688 14.4999 8.99988C14.4997 10.9327 12.9328 12.4999 10.9999 12.4999H7.99988C7.72385 12.4999 7.50006 12.2759 7.49988 11.9999C7.49988 11.7237 7.72374 11.4999 7.99988 11.4999H10.9999C12.3805 11.4999 13.4997 10.3804 13.4999 8.99988Z" fill="currentColor"/>
</svg>
