<svg width="16" height="16" viewBox="0 0 16 16" fill="none" xmlns="http://www.w3.org/2000/svg">
<path d="M13.688 8.09752C13.9626 8.12674 14.1616 8.37371 14.1324 8.6483C13.9309 10.5402 12.858 12.3156 11.0826 13.3407C8.30233 14.9456 4.79206 14.1392 2.9722 11.5711L2.81205 12.1727C2.74058 12.4394 2.4655 12.5977 2.19877 12.5262C1.93236 12.4545 1.77383 12.1805 1.84525 11.9139L2.33353 10.0926C2.40505 9.82611 2.67926 9.66786 2.94584 9.73912L4.76713 10.2274C5.03386 10.2989 5.19211 10.573 5.12064 10.8397C5.04914 11.1064 4.77505 11.2647 4.50834 11.1932L3.79447 11.0018C5.3212 13.1457 8.25673 13.8171 10.5826 12.4745C12.0696 11.6159 12.9692 10.1297 13.1382 8.54185C13.1676 8.26742 13.4136 8.06836 13.688 8.09752ZM4.91654 2.65904C7.6965 1.05412 11.2058 1.86009 13.0259 4.42759L13.188 3.82603C13.2596 3.55942 13.5337 3.40106 13.8003 3.47252C14.067 3.54397 14.2252 3.81815 14.1538 4.08482L13.6656 5.90611C13.6313 6.03409 13.5478 6.1435 13.4331 6.20982C13.3183 6.27612 13.1813 6.29395 13.0533 6.25963L11.232 5.77232C10.9654 5.70089 10.8073 5.42661 10.8785 5.16002C10.9499 4.89336 11.2241 4.7342 11.4908 4.80552L12.2036 4.99595C10.6766 2.85319 7.74187 2.18276 5.41654 3.52525C3.92956 4.38376 3.02997 5.86915 2.86088 7.45689C2.83165 7.73148 2.58566 7.93045 2.31107 7.90123C2.0365 7.872 1.83754 7.62599 1.86674 7.35142C2.06812 5.45941 3.14096 3.68417 4.91654 2.65904Z" fill="currentColor"/>
</svg>
