<svg width="16" height="16" viewBox="0 0 16 16" fill="none" xmlns="http://www.w3.org/2000/svg">
<path d="M12.834 8.66687C12.834 6.73398 11.2668 5.16705 9.33398 5.16687H3.87402L5.6875 6.97937C5.88265 7.17453 5.88244 7.49112 5.6875 7.6864C5.49224 7.88167 5.17573 7.88167 4.98047 7.6864L2.31348 5.02039C2.11827 4.82518 2.11838 4.50863 2.31348 4.31336L4.98047 1.64637C5.17574 1.45127 5.49229 1.45116 5.6875 1.64637C5.88255 1.84159 5.88255 2.15818 5.6875 2.3534L3.87402 4.16687H9.33398C11.8191 4.16705 13.834 6.1817 13.834 8.66687C13.8338 11.1519 11.819 13.1667 9.33398 13.1669H2.66699C2.39096 13.1669 2.16717 12.9429 2.16699 12.6669C2.16699 12.3907 2.39085 12.1669 2.66699 12.1669H9.33398C11.2667 12.1667 12.8338 10.5996 12.834 8.66687Z" fill="currentColor"/>
</svg>
