<svg width="16" height="16" viewBox="0 0 16 16" fill="none" xmlns="http://www.w3.org/2000/svg">
<path d="M10.8262 9.33597C10.8196 9.25593 10.8099 9.24692 10.8154 9.25784C10.7995 9.22648 10.7735 9.20058 10.7422 9.1846C10.7531 9.19016 10.7441 9.18042 10.6641 9.17386C10.578 9.16683 10.4615 9.16702 10.2666 9.16702H5.7334C5.53846 9.16702 5.42202 9.16683 5.33594 9.17386C5.2559 9.18042 5.24689 9.19016 5.25781 9.1846C5.22645 9.20058 5.20055 9.22648 5.18457 9.25784C5.19013 9.24692 5.18038 9.25593 5.17383 9.33597C5.16679 9.42205 5.16699 9.53849 5.16699 9.73343V13.4991C5.17793 13.4991 5.18913 13.5 5.2002 13.5H10.7998C10.8109 13.5 10.8221 13.4991 10.833 13.4991V9.73343C10.833 9.53849 10.8332 9.42205 10.8262 9.33597ZM10.833 2.87601C10.668 2.71263 10.6108 2.66046 10.5498 2.62308C10.4752 2.57739 10.3936 2.54388 10.3086 2.52347C10.2261 2.50371 10.1327 2.50003 9.7832 2.50003H5.16699V4.26663C5.16699 4.46157 5.16679 4.57801 5.17383 4.66409C5.18038 4.74413 5.19013 4.75314 5.18457 4.74222C5.20055 4.77358 5.22645 4.79948 5.25781 4.81546C5.24689 4.8099 5.2559 4.81965 5.33594 4.8262C5.42202 4.83324 5.53846 4.83304 5.7334 4.83304H10.2666C10.4615 4.83304 10.578 4.83324 10.6641 4.8262C10.7441 4.81965 10.7531 4.8099 10.7422 4.81546C10.7735 4.79948 10.7995 4.77358 10.8154 4.74222C10.8099 4.75314 10.8196 4.74413 10.8262 4.66409C10.8332 4.57801 10.833 4.46157 10.833 4.26663V2.87601ZM1.5 5.20023C1.5 4.64842 1.5 4.20432 1.5293 3.84573C1.55907 3.48139 1.62163 3.16136 1.77246 2.86526C2.01214 2.39486 2.39483 2.01217 2.86523 1.77249C3.16133 1.62166 3.48136 1.5591 3.8457 1.52933C4.07289 1.51077 4.33432 1.50631 4.63574 1.50394C4.64603 1.50331 4.65655 1.50003 4.66699 1.50003C4.67588 1.50004 4.68459 1.5025 4.69336 1.50296C4.85127 1.502 5.02008 1.50003 5.2002 1.50003H9.7832C10.0853 1.50003 10.3178 1.49704 10.542 1.55081C10.7291 1.59572 10.9082 1.67002 11.0723 1.77054C11.269 1.8911 11.4318 2.05779 11.6455 2.27151L13.7285 4.35452C13.9422 4.56825 14.1089 4.73107 14.2295 4.92776C14.33 5.0918 14.4043 5.27097 14.4492 5.45804C14.503 5.68227 14.5 5.91475 14.5 6.21683V10.7998C14.5 11.3516 14.5 11.7957 14.4707 12.1543C14.4409 12.5187 14.3784 12.8387 14.2275 13.1348C13.9879 13.6052 13.6052 13.9879 13.1348 14.2276C12.8387 14.3784 12.5186 14.441 12.1543 14.4707C11.9269 14.4893 11.6651 14.4938 11.3633 14.4961C11.3533 14.4967 11.3431 14.5 11.333 14.5C11.3238 14.5 11.3148 14.4976 11.3057 14.4971C11.148 14.4981 10.9796 14.5 10.7998 14.5H5.2002C5.02008 14.5 4.85127 14.4981 4.69336 14.4971C4.68459 14.4976 4.67588 14.5 4.66699 14.5C4.65655 14.5 4.64603 14.4968 4.63574 14.4961C4.33432 14.4937 4.07289 14.4893 3.8457 14.4707C3.48136 14.441 3.16133 14.3784 2.86523 14.2276C2.39483 13.9879 2.01214 13.6052 1.77246 13.1348C1.62163 12.8387 1.55907 12.5187 1.5293 12.1543C1.5 11.7957 1.5 11.3516 1.5 10.7998V5.20023ZM11.833 4.26663C11.833 4.44502 11.8334 4.60892 11.8223 4.74515C11.8107 4.88724 11.7843 5.04278 11.7061 5.19632C11.5942 5.41583 11.4158 5.59424 11.1963 5.70609C11.0428 5.78432 10.8872 5.81069 10.7451 5.8223C10.6089 5.83342 10.445 5.83304 10.2666 5.83304H5.7334C5.55501 5.83304 5.39111 5.83342 5.25488 5.8223C5.11279 5.81069 4.95725 5.78432 4.80371 5.70609C4.58421 5.59424 4.40579 5.41583 4.29395 5.19632C4.21571 5.04278 4.18934 4.88724 4.17773 4.74515C4.16661 4.60892 4.16699 4.44502 4.16699 4.26663V2.51077C4.08112 2.51431 4.00121 2.51934 3.92676 2.52542C3.62471 2.55012 3.45091 2.59616 3.31934 2.66312C3.03709 2.80693 2.8069 3.03712 2.66309 3.31937C2.59613 3.45094 2.55009 3.62474 2.52539 3.92679C2.50019 4.23521 2.5 4.63192 2.5 5.20023V10.7998C2.5 11.3681 2.50019 11.7649 2.52539 12.0733C2.55009 12.3753 2.59613 12.5491 2.66309 12.6807C2.8069 12.9629 3.03709 13.1931 3.31934 13.3369C3.45091 13.4039 3.62471 13.4499 3.92676 13.4746C4.0012 13.4807 4.08114 13.4848 4.16699 13.4883V9.73343C4.16699 9.55504 4.16661 9.39114 4.17773 9.25491C4.18934 9.11282 4.21571 8.95728 4.29395 8.80374C4.40579 8.58424 4.58421 8.40582 4.80371 8.29398C4.95725 8.21574 5.11279 8.18937 5.25488 8.17776C5.39111 8.16664 5.55501 8.16702 5.7334 8.16702H10.2666C10.445 8.16702 10.6089 8.16664 10.7451 8.17776C10.8872 8.18937 11.0428 8.21574 11.1963 8.29398C11.4158 8.40582 11.5942 8.58424 11.7061 8.80374C11.7843 8.95728 11.8107 9.11282 11.8223 9.25491C11.8334 9.39114 11.833 9.55504 11.833 9.73343V13.4883C11.9189 13.4848 11.9988 13.4807 12.0732 13.4746C12.3753 13.4499 12.5491 13.4039 12.6807 13.3369C12.9629 13.1931 13.1931 12.9629 13.3369 12.6807C13.4039 12.5491 13.4499 12.3753 13.4746 12.0733C13.4998 11.7649 13.5 11.3681 13.5 10.7998V6.21683C13.5 5.86737 13.4963 5.77389 13.4766 5.69144C13.4561 5.60641 13.4226 5.52479 13.377 5.45023C13.3326 5.37792 13.2686 5.3097 13.0215 5.06253L11.833 3.87405V4.26663Z" fill="currentColor"/>
</svg>
