<svg width="16" height="16" viewBox="0 0 16 16" fill="none" xmlns="http://www.w3.org/2000/svg">
<path d="M10.833 6.66699C10.833 4.36591 8.96803 2.50018 6.66699 2.5C4.36581 2.5 2.5 4.36581 2.5 6.66699C2.50018 8.96803 4.36591 10.833 6.66699 10.833C8.96792 10.8328 10.8328 8.96792 10.833 6.66699ZM11.833 6.66699C11.8329 7.91355 11.3914 9.05673 10.6562 9.94922L14.3535 13.6465C14.5488 13.8417 14.5488 14.1583 14.3535 14.3535C14.1583 14.5488 13.8417 14.5488 13.6465 14.3535L9.94922 10.6562C9.05673 11.3914 7.91355 11.8329 6.66699 11.833C3.81363 11.833 1.50018 9.52031 1.5 6.66699C1.5 3.81352 3.81352 1.5 6.66699 1.5C9.52031 1.50018 11.833 3.81363 11.833 6.66699Z" fill="currentColor"/>
</svg>
