<svg width="16" height="16" viewBox="0 0 16 16" fill="none" xmlns="http://www.w3.org/2000/svg">
<path d="M6.50391 7.65034C6.69675 7.45274 7.0133 7.44873 7.21094 7.64155C7.40833 7.83436 7.41237 8.15099 7.21973 8.34858L5.44727 10.166H14.666C14.9422 10.166 15.166 10.3898 15.166 10.666C15.166 10.9421 14.9422 11.166 14.666 11.166H5.44727L7.21973 12.9833C7.41237 13.1809 7.40833 13.4976 7.21094 13.6904C7.0133 13.8832 6.69675 13.8792 6.50391 13.6816L3.90234 11.0156C3.71286 10.8214 3.71286 10.5106 3.90234 10.3164L6.50391 7.65034ZM8.78906 2.30854C8.9867 2.11572 9.30325 2.11876 9.49609 2.31635L12.0977 4.98334C12.287 5.17749 12.2869 5.48738 12.0977 5.68159L9.49609 8.34858C9.30334 8.54615 8.98674 8.54994 8.78906 8.35737C8.5914 8.16453 8.58744 7.84799 8.78027 7.65034L10.5527 5.83295H1.33301C1.05697 5.83295 0.833184 5.60895 0.833008 5.33295C0.833008 5.05681 1.05687 4.83295 1.33301 4.83295H10.5537L8.78027 3.01557C8.58746 2.81793 8.59146 2.50138 8.78906 2.30854Z" fill="currentColor"/>
</svg>
