<svg width="16" height="16" viewBox="0 0 16 16" fill="none" xmlns="http://www.w3.org/2000/svg">
<path d="M14 3.5C14.2761 3.5 14.5 3.72386 14.5 4C14.5 4.27614 14.2761 4.5 14 4.5H13.1348L12.6982 11.0459C12.6637 11.564 12.6364 11.9823 12.5869 12.3193C12.5365 12.6624 12.4577 12.9619 12.3008 13.2373C12.0507 13.6763 11.6734 14.0297 11.2188 14.25C10.9337 14.3881 10.6295 14.4462 10.2842 14.4736C9.94455 14.5006 9.52515 14.5 9.00586 14.5H6.99414C6.47485 14.5 6.05545 14.5006 5.71582 14.4736C5.37045 14.4462 5.0663 14.3881 4.78125 14.25C4.3266 14.0297 3.94931 13.6763 3.69922 13.2373C3.54233 12.9619 3.46347 12.6624 3.41309 12.3193C3.36359 11.9823 3.3363 11.564 3.30176 11.0459L2.86523 4.5H2C1.72386 4.5 1.5 4.27614 1.5 4C1.5 3.72386 1.72386 3.5 2 3.5H14ZM4.2998 10.9795C4.33541 11.5135 4.36093 11.8851 4.40332 12.1738C4.44478 12.4561 4.49719 12.6188 4.56738 12.7422C4.7174 13.0055 4.9441 13.2174 5.2168 13.3496C5.34457 13.4115 5.51038 13.4539 5.79492 13.4766C6.08582 13.4997 6.45893 13.5 6.99414 13.5H9.00586C9.54107 13.5 9.91418 13.4997 10.2051 13.4766C10.4896 13.4539 10.6554 13.4115 10.7832 13.3496C11.0559 13.2174 11.2826 13.0055 11.4326 12.7422C11.5028 12.6188 11.5552 12.4561 11.5967 12.1738C11.6391 11.8851 11.6646 11.5135 11.7002 10.9795L12.1328 4.5H3.86719L4.2998 10.9795ZM6.16699 10.333V7C6.16699 6.72386 6.39085 6.5 6.66699 6.5C6.94299 6.50018 7.16699 6.72397 7.16699 7V10.333C7.16699 10.609 6.94298 10.8328 6.66699 10.833C6.39085 10.833 6.16699 10.6091 6.16699 10.333ZM8.83301 10.333V7C8.83301 6.72397 9.05702 6.50018 9.33301 6.5C9.60915 6.5 9.83301 6.72386 9.83301 7V10.333C9.83301 10.6091 9.60915 10.833 9.33301 10.833C9.05702 10.8328 8.83301 10.609 8.83301 10.333ZM10 1.5C10.2761 1.5 10.5 1.72386 10.5 2C10.5 2.27614 10.2761 2.5 10 2.5H6C5.72386 2.5 5.5 2.27614 5.5 2C5.5 1.72386 5.72386 1.5 6 1.5H10Z" fill="currentColor"/>
</svg>
