<svg width="16" height="16" viewBox="0 0 16 16" fill="none" xmlns="http://www.w3.org/2000/svg">
<path d="M1.5 10.8V10.0002C1.5 9.72406 1.72386 9.50021 2 9.50021C2.27614 9.50021 2.5 9.72406 2.5 10.0002V10.8C2.5 11.3683 2.50019 11.765 2.52539 12.0734C2.55009 12.3755 2.59613 12.5493 2.66309 12.6809C2.8069 12.9631 3.03709 13.1933 3.31934 13.3371C3.45091 13.4041 3.62471 13.4501 3.92676 13.4748C4.23518 13.5 4.63189 13.5002 5.2002 13.5002H10.7998C11.3681 13.5002 11.7648 13.5 12.0732 13.4748C12.3753 13.4501 12.5491 13.4041 12.6807 13.3371C12.9629 13.1933 13.1931 12.9631 13.3369 12.6809C13.4039 12.5493 13.4499 12.3755 13.4746 12.0734C13.4998 11.765 13.5 11.3683 13.5 10.8V10.0002C13.5 9.72406 13.7239 9.50021 14 9.50021C14.2761 9.50021 14.5 9.72406 14.5 10.0002V10.8C14.5 11.3518 14.5 11.7959 14.4707 12.1545C14.4409 12.5188 14.3784 12.8389 14.2275 13.135C13.9879 13.6054 13.6052 13.9881 13.1348 14.2277C12.8387 14.3786 12.5186 14.4411 12.1543 14.4709C11.7957 14.5002 11.3516 14.5002 10.7998 14.5002H5.2002C4.64839 14.5002 4.20429 14.5002 3.8457 14.4709C3.48136 14.4411 3.16133 14.3786 2.86523 14.2277C2.39483 13.9881 2.01214 13.6054 1.77246 13.135C1.62163 12.8389 1.55907 12.5188 1.5293 12.1545C1.5 11.7959 1.5 11.3518 1.5 10.8ZM7.5 10.0002V3.20724L5.02051 5.68673C4.82525 5.88199 4.50874 5.88199 4.31348 5.68673C4.11821 5.49147 4.11821 5.17496 4.31348 4.9797L7.64648 1.64669L7.72461 1.58224C7.91869 1.45407 8.18265 1.47583 8.35352 1.64669L11.6865 4.9797C11.8818 5.17496 11.8818 5.49147 11.6865 5.68673C11.4913 5.88199 11.1748 5.88199 10.9795 5.68673L8.5 3.20724V10.0002C8.5 10.2764 8.27614 10.5002 8 10.5002C7.72386 10.5002 7.5 10.2764 7.5 10.0002Z" fill="currentColor"/>
</svg>
