<svg width="16" height="16" viewBox="0 0 16 16" fill="none" xmlns="http://www.w3.org/2000/svg">
<path d="M12.6464 2.64645C12.8417 2.45118 13.1582 2.45118 13.3535 2.64645C13.5487 2.84171 13.5487 3.15822 13.3535 3.35348L8.70699 7.99996L13.3535 12.6464C13.5487 12.8417 13.5487 13.1582 13.3535 13.3535C13.1582 13.5487 12.8417 13.5487 12.6464 13.3535L7.99996 8.70699L3.35348 13.3535C3.15822 13.5487 2.84171 13.5487 2.64645 13.3535C2.45118 13.1582 2.45118 12.8417 2.64645 12.6464L7.29293 7.99996L2.64645 3.35348C2.45118 3.15822 2.45118 2.84171 2.64645 2.64645C2.84171 2.45118 3.15822 2.45118 3.35348 2.64645L7.99996 7.29293L12.6464 2.64645Z" fill="currentColor"/>
</svg>
