<svg width="16" height="16" viewBox="0 0 16 16" fill="none" xmlns="http://www.w3.org/2000/svg">
<path d="M13 13V3H11C10.8674 3 10.7402 2.94732 10.6464 2.85355C10.5527 2.75979 10.5 2.63261 10.5 2.5C10.5 2.36739 10.5527 2.24021 10.6464 2.14645C10.7402 2.05268 10.8674 2 11 2H13.5C13.6326 2 13.7598 2.05268 13.8536 2.14645C13.9473 2.24021 14 2.36739 14 2.5V13.5C14 13.6326 13.9473 13.7598 13.8536 13.8536C13.7598 13.9473 13.6326 14 13.5 14H11C10.8674 14 10.7402 13.9473 10.6464 13.8536C10.5527 13.7598 10.5 13.6326 10.5 13.5C10.5 13.3674 10.5527 13.2402 10.6464 13.1464C10.7402 13.0527 10.8674 13 11 13H13ZM2.5 14H5C5.13261 14 5.25979 13.9473 5.35355 13.8536C5.44732 13.7598 5.5 13.6326 5.5 13.5C5.5 13.3674 5.44732 13.2402 5.35355 13.1464C5.25979 13.0527 5.13261 13 5 13H3V3H5C5.13261 3 5.25979 2.94732 5.35355 2.85355C5.44732 2.75979 5.5 2.63261 5.5 2.5C5.5 2.36739 5.44732 2.24021 5.35355 2.14645C5.25979 2.05268 5.13261 2 5 2H2.5C2.36739 2 2.24021 2.05268 2.14645 2.14645C2.05268 2.24021 2 2.36739 2 2.5V13.5C2 13.6326 2.05268 13.7598 2.14645 13.8536C2.24021 13.9473 2.36739 14 2.5 14Z" fill="currentColor"/>
</svg>
