<svg width="16" height="16" viewBox="0 0 16 16" fill="none" xmlns="http://www.w3.org/2000/svg">
<g clip-path="url(#clip0_43_1517)">
<path d="M12.167 7.95892L12.1572 7.74896C12.1088 7.26242 11.8936 6.80482 11.5449 6.45599C11.1465 6.05745 10.6056 5.83338 10.042 5.83295H5.95801C5.39472 5.83365 4.85427 6.05758 4.45605 6.45599C4.05779 6.85452 3.83427 7.39551 3.83398 7.95892V9.99994C3.83403 10.5469 3.9421 11.0884 4.15137 11.5937C4.36076 12.0992 4.66778 12.5593 5.05469 12.9462C5.44153 13.333 5.90087 13.6402 6.40625 13.8495C6.75703 13.9948 7.12559 14.0893 7.50098 14.1347V9.99994C7.50098 9.7238 7.72483 9.49994 8.00098 9.49994C8.27697 9.50012 8.50098 9.7239 8.50098 9.99994V14.1347C8.87604 14.0893 9.24423 13.9947 9.59473 13.8495C10.1002 13.6402 10.5604 13.3331 10.9473 12.9462C11.3342 12.5593 11.6412 12.0992 11.8506 11.5937C12.0598 11.0884 12.1669 10.5468 12.167 9.99994V7.95892ZM8.00098 2.49994C7.33794 2.49994 6.70126 2.76254 6.23242 3.23138C5.7954 3.66841 5.53991 4.25117 5.50684 4.86517C5.655 4.84345 5.80551 4.83312 5.95703 4.83295H10.043C10.1945 4.83306 10.345 4.84351 10.4932 4.86517C10.4601 4.25119 10.2056 3.66839 9.76855 3.23138C9.29981 2.76272 8.66382 2.50003 8.00098 2.49994ZM13.167 9.99994C13.1669 10.6782 13.0339 11.3499 12.7744 11.9765C12.7198 12.1084 12.6569 12.2367 12.5918 12.3632L13.8525 12.8691C14.1089 12.9716 14.2342 13.2622 14.1318 13.5185C14.0293 13.7749 13.7378 13.8994 13.4814 13.7968L12.1484 13.2636C12.1119 13.249 12.0788 13.2296 12.0479 13.2079C11.9249 13.363 11.7948 13.5128 11.6543 13.6533C11.1745 14.133 10.6044 14.5137 9.97754 14.7734C9.3509 15.0329 8.67922 15.1659 8.00098 15.166C7.32253 15.166 6.65025 15.033 6.02344 14.7734C5.39673 14.5138 4.82736 14.1329 4.34766 13.6533C4.20697 13.5126 4.07523 13.3633 3.95215 13.2079C3.92148 13.2293 3.88873 13.2491 3.85254 13.2636L2.51953 13.7968C2.26314 13.8994 1.97267 13.7749 1.87012 13.5185C1.76756 13.2621 1.89205 12.9716 2.14844 12.8691L3.4082 12.3632C3.34319 12.2369 3.28209 12.1082 3.22754 11.9765C2.96798 11.3498 2.83403 10.6783 2.83398 9.99994V9.83295H1.33398C1.05784 9.83295 0.833984 9.60909 0.833984 9.33295C0.833984 9.0568 1.05784 8.83295 1.33398 8.83295H2.83398V7.95795C2.83431 7.35472 3.01002 6.77023 3.33105 6.27045L2.14844 5.79681C1.89205 5.69426 1.76756 5.40379 1.87012 5.1474C1.97267 4.89101 2.26314 4.76652 2.51953 4.86908L3.85254 5.40228C3.91625 5.42777 3.97257 5.46437 4.01855 5.5097C4.17996 5.38175 4.35342 5.2718 4.53516 5.17865C4.51375 5.12302 4.50102 5.0631 4.50098 4.99994C4.50098 4.07168 4.86901 3.18073 5.52539 2.52435C5.54511 2.50463 5.5658 2.48594 5.58594 2.46674L4.41016 1.76166C4.17351 1.61967 4.09656 1.31284 4.23828 1.07611C4.38036 0.839321 4.68801 0.762162 4.9248 0.904236L6.48828 1.84271C6.95593 1.61869 7.47256 1.49994 8.00098 1.49994C8.52888 1.49999 9.04444 1.61906 9.51172 1.84271L11.0771 0.904236C11.3139 0.762396 11.6207 0.839417 11.7627 1.07611C11.9045 1.31286 11.8275 1.61964 11.5908 1.76166L10.415 2.46674C10.4352 2.48594 10.4559 2.50463 10.4756 2.52435C11.132 3.18073 11.501 4.07168 11.501 4.99994C11.5009 5.06327 11.4864 5.1229 11.4648 5.17865C11.6469 5.27187 11.8208 5.38158 11.9824 5.5097C12.0284 5.4643 12.0847 5.4278 12.1484 5.40228L13.4814 4.86908C13.7378 4.76652 14.0293 4.89101 14.1318 5.1474C14.2342 5.40374 14.1089 5.69429 13.8525 5.79681L12.6689 6.27045C12.9902 6.77036 13.1667 7.35448 13.167 7.95795V8.83295H14.667C14.9431 8.83295 15.167 9.0568 15.167 9.33295C15.167 9.60909 14.9431 9.83295 14.667 9.83295H13.167V9.99994Z" fill="currentColor"/>
</g>
<defs>
<clipPath id="clip0_43_1517">
<rect width="16" height="16" fill="white"/>
</clipPath>
</defs>
</svg>
