<svg width="16" height="16" viewBox="0 0 16 16" fill="none" xmlns="http://www.w3.org/2000/svg">
<g clip-path="url(#clip0_43_1517)">
<path d="M11.0007 4.99967C11.0007 4.20402 10.6846 3.44096 10.122 2.87835C9.55936 2.31574 8.7963 1.99967 8.00065 1.99967C7.205 1.99967 6.44194 2.31574 5.87933 2.87835C5.31672 3.44096 5.00065 4.20402 5.00065 4.99967M12.6673 9.33301H14.6673M3.33398 9.33301H1.33398M9.66732 2.33301L11.334 1.33301M6.33398 2.33301L4.66732 1.33301M13.6673 13.333L12.334 12.7997M13.6673 5.33301L12.334 5.86634M2.33398 13.333L3.66732 12.7997M2.33398 5.33301L3.66732 5.86634M8.00065 14.333V9.99967M12.6673 9.99967V7.95834C12.667 7.26228 12.3903 6.59483 11.8982 6.10258C11.4061 5.61033 10.7387 5.33354 10.0427 5.33301H5.95798C5.26204 5.33371 4.59483 5.61058 4.10285 6.10281C3.61086 6.59504 3.33434 7.2624 3.33398 7.95834V9.99967C3.33398 10.6125 3.45469 11.2193 3.68921 11.7855C3.92374 12.3517 4.26748 12.8662 4.70082 13.2995C5.13416 13.7328 5.64861 14.0766 6.21479 14.3111C6.78098 14.5456 7.38782 14.6663 8.00065 14.6663C8.61349 14.6663 9.22032 14.5456 9.78651 14.3111C10.3527 14.0766 10.8671 13.7328 11.3005 13.2995C11.7338 12.8662 12.0776 12.3517 12.3121 11.7855C12.5466 11.2193 12.6673 10.6125 12.6673 9.99967Z" stroke="currentColor" stroke-linecap="round" stroke-linejoin="round"/>
</g>
<defs>
<clipPath id="clip0_43_1517">
<rect width="16" height="16" fill="white"/>
</clipPath>
</defs>
</svg>
