<svg width="16" height="16" viewBox="0 0 16 16" fill="none" xmlns="http://www.w3.org/2000/svg">
<g opacity="0.7">
<path d="M7.99967 8.6665C8.36786 8.6665 8.66634 8.36803 8.66634 7.99984C8.66634 7.63165 8.36786 7.33317 7.99967 7.33317C7.63148 7.33317 7.33301 7.63165 7.33301 7.99984C7.33301 8.36803 7.63148 8.6665 7.99967 8.6665Z" stroke="currentColor" stroke-width="1.2" stroke-linecap="round" stroke-linejoin="round"/>
<path d="M7.99967 3.99984C8.36786 3.99984 8.66634 3.70136 8.66634 3.33317C8.66634 2.96498 8.36786 2.6665 7.99967 2.6665C7.63148 2.6665 7.33301 2.96498 7.33301 3.33317C7.33301 3.70136 7.63148 3.99984 7.99967 3.99984Z" stroke="currentColor" stroke-width="1.2" stroke-linecap="round" stroke-linejoin="round"/>
<path d="M7.99967 13.3332C8.36786 13.3332 8.66634 13.0347 8.66634 12.6665C8.66634 12.2983 8.36786 11.9998 7.99967 11.9998C7.63148 11.9998 7.33301 12.2983 7.33301 12.6665C7.33301 13.0347 7.63148 13.3332 7.99967 13.3332Z" stroke="currentColor" stroke-width="1.2" stroke-linecap="round" stroke-linejoin="round"/>
</g>
</svg>
