<svg width="16" height="16" viewBox="0 0 16 16" fill="none" xmlns="http://www.w3.org/2000/svg">
<path d="M3.00048 7C3.26561 7.00007 3.52003 7.10549 3.70751 7.29297C3.89497 7.48049 4.00048 7.73484 4.00048 8C4.00048 8.19778 3.94141 8.39121 3.83153 8.55566C3.72172 8.71994 3.56582 8.84814 3.38329 8.92383C3.20056 8.99952 2.99915 9.01905 2.80517 8.98047C2.61126 8.94189 2.43327 8.84681 2.29345 8.70703C2.15363 8.56721 2.05764 8.38924 2.01903 8.19531C1.98045 8.00133 2.00096 7.79991 2.07665 7.61719C2.15234 7.43459 2.28047 7.27878 2.44481 7.16895C2.60926 7.05906 2.8027 7 3.00048 7Z" fill="currentColor"/>
<path d="M8.00048 7C8.2656 7.00007 8.52003 7.10549 8.70751 7.29297C8.89497 7.48049 9.00048 7.73484 9.00048 8C9.00048 8.19778 8.94141 8.39121 8.83153 8.55566C8.72172 8.71994 8.56582 8.84814 8.38329 8.92383C8.20056 8.99952 7.99915 9.01905 7.80517 8.98047C7.61126 8.94189 7.43327 8.84681 7.29345 8.70703C7.15363 8.56721 7.05763 8.38924 7.01903 8.19531C6.98045 8.00133 7.00096 7.79991 7.07665 7.61719C7.15234 7.43459 7.28047 7.27878 7.44481 7.16895C7.60926 7.05906 7.8027 7 8.00048 7Z" fill="currentColor"/>
<path d="M13.0005 7C13.2656 7.00007 13.52 7.10549 13.7075 7.29297C13.895 7.48049 14.0005 7.73484 14.0005 8C14.0005 8.19778 13.9414 8.39121 13.8315 8.55566C13.7217 8.71994 13.5658 8.84814 13.3833 8.92383C13.2006 8.99952 12.9991 9.01905 12.8052 8.98047C12.6113 8.94189 12.4333 8.84681 12.2934 8.70703C12.1536 8.56721 12.0576 8.38924 12.019 8.19531C11.9804 8.00133 12.001 7.79991 12.0766 7.61719C12.1523 7.43459 12.2805 7.27878 12.4448 7.16895C12.6093 7.05906 12.8027 7 13.0005 7Z" fill="currentColor"/>
</svg>