<svg width="16" height="16" viewBox="0 0 16 16" fill="none" xmlns="http://www.w3.org/2000/svg">
<path d="M3.45188 12.6319C4.66206 13.8303 6.29686 14.5017 8 14.5H8.06688C9.77917 14.4824 11.4153 13.7898 12.6199 12.5727C13.8245 11.3556 14.5001 9.71238 14.5 8C14.5 5.3125 12.8388 3.05875 10.165 2.11437C9.86343 2.00805 9.54076 1.97559 9.22406 2.0197C8.90736 2.06382 8.60585 2.18323 8.34482 2.36792C8.08379 2.55262 7.87084 2.79721 7.72385 3.08118C7.57686 3.36515 7.50009 3.68023 7.5 4C7.5 4.26521 7.39464 4.51957 7.20711 4.7071C7.01957 4.89464 6.76522 5 6.5 5H3.61188C3.1582 4.9978 2.71742 5.15083 2.36271 5.43369C2.00801 5.71655 1.76071 6.11221 1.66188 6.555C1.55012 7.04706 1.4958 7.55042 1.5 8.055C1.50637 8.90908 1.68217 9.75341 2.01722 10.5391C2.35227 11.3247 2.83991 12.0361 3.45188 12.6319ZM2.63938 6.775C2.68904 6.5544 2.81248 6.35736 2.98931 6.21645C3.16614 6.07553 3.38577 5.99917 3.61188 6H6.5C7.03043 6 7.53914 5.78928 7.91421 5.41421C8.28929 5.03914 8.5 4.53043 8.5 4C8.50023 3.84027 8.53872 3.68292 8.61225 3.54112C8.68577 3.39932 8.7922 3.2772 8.92261 3.18497C9.05302 3.09275 9.20363 3.0331 9.36182 3.01103C9.52002 2.98896 9.6812 3.00511 9.83188 3.05812C12.0944 3.85624 13.5 5.75 13.5 8C13.5001 9.44889 12.9284 10.8393 11.9092 11.8691C10.8901 12.8989 9.50569 13.485 8.05688 13.5H8.00063C6.55176 13.4944 5.16315 12.9195 4.13426 11.8994C3.10538 10.8793 2.51865 9.49564 2.50063 8.04687C2.4969 7.61908 2.54262 7.19229 2.63688 6.775H2.63938ZM7.25 11.25C7.25 11.1017 7.29399 10.9567 7.3764 10.8333C7.45881 10.71 7.57594 10.6139 7.71299 10.5571C7.85003 10.5003 8.00083 10.4855 8.14632 10.5144C8.2918 10.5433 8.42544 10.6148 8.53033 10.7197C8.63522 10.8246 8.70665 10.9582 8.73559 11.1037C8.76453 11.2492 8.74968 11.4 8.69291 11.537C8.63614 11.6741 8.54001 11.7912 8.41668 11.8736C8.29334 11.956 8.14834 12 8 12C7.80109 12 7.61032 11.921 7.46967 11.7803C7.32902 11.6397 7.25 11.4489 7.25 11.25ZM10 9.75C10 9.60166 10.044 9.45666 10.1264 9.33332C10.2088 9.20998 10.3259 9.11385 10.463 9.05709C10.6 9.00032 10.7508 8.98547 10.8963 9.01441C11.0418 9.04335 11.1754 9.11478 11.2803 9.21967C11.3852 9.32456 11.4567 9.45819 11.4856 9.60368C11.5145 9.74916 11.4997 9.89996 11.4429 10.037C11.3861 10.1741 11.29 10.2912 11.1667 10.3736C11.0433 10.456 10.8983 10.5 10.75 10.5C10.5511 10.5 10.3603 10.421 10.2197 10.2803C10.079 10.1397 10 9.94891 10 9.75ZM10 6.25C10 6.10166 10.044 5.95665 10.1264 5.83332C10.2088 5.70998 10.3259 5.61385 10.463 5.55709C10.6 5.50032 10.7508 5.48547 10.8963 5.51441C11.0418 5.54335 11.1754 5.61478 11.2803 5.71967C11.3852 5.82455 11.4567 5.95819 11.4856 6.10368C11.5145 6.24916 11.4997 6.39996 11.4429 6.53701C11.3861 6.67405 11.29 6.79119 11.1667 6.8736C11.0433 6.95601 10.8983 7 10.75 7C10.5511 7 10.3603 6.92098 10.2197 6.78033C10.079 6.63967 10 6.44891 10 6.25ZM4.5 9.75C4.5 9.60166 4.54399 9.45666 4.6264 9.33332C4.70881 9.20998 4.82594 9.11385 4.96299 9.05709C5.10003 9.00032 5.25083 8.98547 5.39632 9.01441C5.5418 9.04335 5.67544 9.11478 5.78033 9.21967C5.88522 9.32456 5.95665 9.45819 5.98559 9.60368C6.01453 9.74916 5.99968 9.89996 5.94291 10.037C5.88614 10.1741 5.79002 10.2912 5.66668 10.3736C5.54334 10.456 5.39834 10.5 5.25 10.5C5.05109 10.5 4.86032 10.421 4.71967 10.2803C4.57902 10.1397 4.5 9.94891 4.5 9.75Z" fill="currentColor"/>
</svg>
