<svg width="16" height="16" viewBox="0 0 16 16" fill="none" xmlns="http://www.w3.org/2000/svg">
<g clip-path="url(#clip0_68_1633)">
<path d="M14.166 8.00098C14.166 4.59533 11.4056 1.83416 8 1.83398C4.59424 1.83398 1.83301 4.59522 1.83301 8.00098C1.83318 11.4066 4.59435 14.167 8 14.167C11.4055 14.1668 14.1658 11.4065 14.166 8.00098ZM7.5 4.00098C7.5 3.72483 7.72386 3.50098 8 3.50098C8.27599 3.50115 8.5 3.72494 8.5 4.00098V7.69141L10.8896 8.88672C11.1366 9.01021 11.2368 9.31063 11.1133 9.55762C10.9897 9.80451 10.6893 9.90472 10.4424 9.78125L7.77637 8.44824C7.60707 8.3636 7.50012 8.19024 7.5 8.00098V4.00098ZM15.166 8.00098C15.1658 11.9588 11.9578 15.1668 8 15.167C4.04207 15.167 0.833184 11.9589 0.833008 8.00098C0.833008 4.04294 4.04196 0.833984 8 0.833984C11.9579 0.834161 15.166 4.04305 15.166 8.00098Z" fill="currentColor"/>
</g>
<defs>
<clipPath id="clip0_68_1633">
<rect width="16" height="16" fill="white"/>
</clipPath>
</defs>
</svg>
