<svg width="16" height="16" viewBox="0 0 16 16" fill="none" xmlns="http://www.w3.org/2000/svg">
<g clip-path="url(#clip0_603_12383)">
<path d="M14.133 14.6668C14.3197 14.6668 14.413 14.6668 14.4843 14.6305C14.5471 14.5985 14.5981 14.5475 14.63 14.4848C14.6663 14.4135 14.6663 14.3202 14.6663 14.1335V7.20016C14.6663 7.01348 14.6663 6.92014 14.63 6.84883C14.5981 6.78611 14.5471 6.73512 14.4843 6.70316C14.413 6.66683 14.3197 6.66683 14.133 6.66683L12.533 6.66683C12.3463 6.66683 12.253 6.66683 12.1817 6.70316C12.119 6.73512 12.068 6.78611 12.036 6.84883C11.9997 6.92014 11.9997 7.01348 11.9997 7.20016V8.80016C11.9997 8.98685 11.9997 9.08019 11.9633 9.15149C11.9314 9.21421 11.8804 9.26521 11.8177 9.29716C11.7464 9.3335 11.653 9.3335 11.4663 9.3335H9.86634C9.67966 9.3335 9.58631 9.3335 9.51501 9.36983C9.45229 9.40178 9.4013 9.45278 9.36934 9.5155C9.33301 9.5868 9.33301 9.68014 9.33301 9.86683V11.4668C9.33301 11.6535 9.33301 11.7469 9.29668 11.8182C9.26472 11.8809 9.21373 11.9319 9.151 11.9638C9.0797 12.0002 8.98636 12.0002 8.79967 12.0002H7.19967C7.01299 12.0002 6.91965 12.0002 6.84834 12.0365C6.78562 12.0685 6.73463 12.1194 6.70267 12.1822C6.66634 12.2535 6.66634 12.3468 6.66634 12.5335V14.1335C6.66634 14.3202 6.66634 14.4135 6.70267 14.4848C6.73463 14.5475 6.78562 14.5985 6.84834 14.6305C6.91965 14.6668 7.01299 14.6668 7.19967 14.6668L14.133 14.6668Z" stroke="currentColor" stroke-linecap="round" stroke-linejoin="round"/>
<path d="M6.66634 4.5335C6.66634 4.34681 6.66634 4.25347 6.70267 4.18217C6.73463 4.11944 6.78562 4.06845 6.84834 4.03649C6.91965 4.00016 7.01299 4.00016 7.19967 4.00016H8.79967C8.98636 4.00016 9.0797 4.00016 9.151 4.03649C9.21373 4.06845 9.26472 4.11944 9.29668 4.18217C9.33301 4.25347 9.33301 4.34681 9.33301 4.5335V6.1335C9.33301 6.32018 9.33301 6.41352 9.29668 6.48483C9.26472 6.54755 9.21373 6.59854 9.151 6.6305C9.0797 6.66683 8.98636 6.66683 8.79967 6.66683H7.19967C7.01299 6.66683 6.91965 6.66683 6.84834 6.6305C6.78562 6.59854 6.73463 6.54755 6.70267 6.48483C6.66634 6.41352 6.66634 6.32018 6.66634 6.1335V4.5335Z" stroke="currentColor" stroke-linecap="round" stroke-linejoin="round"/>
<path d="M1.99967 8.5335C1.99967 8.34681 1.99967 8.25347 2.03601 8.18217C2.06796 8.11944 2.11896 8.06845 2.18168 8.03649C2.25298 8.00016 2.34632 8.00016 2.53301 8.00016H4.13301C4.31969 8.00016 4.41303 8.00016 4.48434 8.03649C4.54706 8.06845 4.59805 8.11944 4.63001 8.18217C4.66634 8.25347 4.66634 8.34681 4.66634 8.5335V10.1335C4.66634 10.3202 4.66634 10.4135 4.63001 10.4848C4.59805 10.5475 4.54706 10.5985 4.48434 10.6305C4.41303 10.6668 4.31969 10.6668 4.13301 10.6668H2.53301C2.34632 10.6668 2.25298 10.6668 2.18168 10.6305C2.11896 10.5985 2.06796 10.5475 2.03601 10.4848C1.99967 10.4135 1.99967 10.3202 1.99967 10.1335V8.5335Z" stroke="currentColor" stroke-linecap="round" stroke-linejoin="round"/>
<path d="M1.33301 1.86683C1.33301 1.68015 1.33301 1.5868 1.36934 1.5155C1.4013 1.45278 1.45229 1.40179 1.51501 1.36983C1.58631 1.3335 1.67966 1.3335 1.86634 1.3335H3.46634C3.65303 1.3335 3.74637 1.3335 3.81767 1.36983C3.88039 1.40179 3.93139 1.45278 3.96334 1.5155C3.99967 1.5868 3.99967 1.68015 3.99967 1.86683V3.46683C3.99967 3.65351 3.99967 3.74686 3.96334 3.81816C3.93139 3.88088 3.88039 3.93187 3.81767 3.96383C3.74637 4.00016 3.65303 4.00016 3.46634 4.00016H1.86634C1.67966 4.00016 1.58631 4.00016 1.51501 3.96383C1.45229 3.93187 1.4013 3.88088 1.36934 3.81816C1.33301 3.74686 1.33301 3.65351 1.33301 3.46683V1.86683Z" stroke="currentColor" stroke-linecap="round" stroke-linejoin="round"/>
</g>
<defs>
<clipPath id="clip0_603_12383">
<rect width="16" height="16" fill="white"/>
</clipPath>
</defs>
</svg>
