<svg width="16" height="16" viewBox="0 0 16 16" fill="none" xmlns="http://www.w3.org/2000/svg">
<g clip-path="url(#clip0_603_12383)">
<path d="M14.166 7.16702H12.5V8.80081C12.5 8.88586 12.4998 8.97994 12.4932 9.06057C12.4861 9.147 12.4691 9.26124 12.4092 9.37893C12.3293 9.53567 12.2017 9.66329 12.0449 9.74319C11.9271 9.80325 11.8121 9.82108 11.7256 9.82815C11.6452 9.83469 11.5516 9.83401 11.4668 9.83401H9.83303V11.4678C9.83303 11.5526 9.83372 11.6462 9.82717 11.7266C9.8201 11.8131 9.80228 11.928 9.74221 12.0459C9.66231 12.2026 9.53469 12.3303 9.37795 12.4102C9.26026 12.4701 9.14602 12.4871 9.05959 12.4942C8.97897 12.5008 8.88489 12.501 8.79983 12.501H7.16604V14.167H14.166V7.16702ZM4.16604 8.501H2.50002V10.167H4.16604V8.501ZM8.83303 4.501H7.16604V6.16702H8.83303V4.501ZM3.49905 1.83401H1.83303V3.50002C1.84348 3.50003 1.85452 3.501 1.86623 3.501H3.46682C3.47817 3.501 3.48889 3.50003 3.49905 3.50002C3.49906 3.48986 3.50002 3.47915 3.50002 3.4678V1.86721C3.50002 1.8555 3.49906 1.84446 3.49905 1.83401ZM5.16604 10.1338C5.16604 10.2189 5.16676 10.3129 5.16018 10.3936C5.15312 10.48 5.13521 10.5941 5.07522 10.7119C4.99532 10.8687 4.86776 10.9963 4.71096 11.0762C4.59314 11.1362 4.47906 11.1541 4.3926 11.1612C4.31195 11.1677 4.2179 11.167 4.13284 11.167H2.53323C2.44816 11.167 2.35411 11.1677 2.27346 11.1612C2.187 11.1541 2.07292 11.1362 1.9551 11.0762C1.7983 10.9963 1.67074 10.8687 1.59084 10.7119C1.53085 10.5941 1.51295 10.48 1.50588 10.3936C1.4993 10.3129 1.50002 10.2189 1.50002 10.1338V8.5342C1.50002 8.44914 1.4993 8.35509 1.50588 8.27444C1.51295 8.18798 1.53085 8.0739 1.59084 7.95608L1.6592 7.84377C1.7361 7.73808 1.83754 7.65172 1.9551 7.59182L2.04202 7.55373C2.12794 7.52315 2.20859 7.51216 2.27346 7.50686C2.35411 7.50028 2.44816 7.501 2.53323 7.501H4.13284C4.2179 7.501 4.31195 7.50028 4.3926 7.50686C4.45748 7.51216 4.53812 7.52315 4.62405 7.55373L4.71096 7.59182L4.82327 7.66018C4.89368 7.71141 4.95563 7.77336 5.00686 7.84377L5.07522 7.95608L5.11331 8.04299C5.14389 8.12892 5.15488 8.20956 5.16018 8.27444C5.16676 8.35509 5.16604 8.44914 5.16604 8.5342V10.1338ZM15.166 14.1338C15.166 14.2189 15.1668 14.3129 15.1602 14.3936C15.1531 14.48 15.1352 14.5941 15.0752 14.7119C14.9953 14.8687 14.8678 14.9963 14.711 15.0762C14.5931 15.1362 14.4791 15.1541 14.3926 15.1612C14.312 15.1677 14.2179 15.167 14.1328 15.167H7.19924C7.11441 15.167 7.02089 15.1677 6.94045 15.1612C6.85395 15.1541 6.739 15.1363 6.62112 15.0762C6.46447 14.9963 6.3367 14.8686 6.25686 14.7119C6.19698 14.5942 6.17993 14.48 6.17288 14.3936C6.16629 14.3129 6.16604 14.2189 6.16604 14.1338V12.5342C6.16604 12.4491 6.16629 12.3551 6.17288 12.2744C6.17993 12.188 6.19698 12.0738 6.25686 11.9561L6.3262 11.8438C6.40301 11.7382 6.50376 11.6517 6.62112 11.5918L6.70901 11.5537C6.79482 11.5232 6.87565 11.5122 6.94045 11.5069C7.02089 11.5003 7.11441 11.501 7.19924 11.501H8.79983C8.81118 11.501 8.82189 11.5 8.83206 11.5C8.83206 11.4899 8.83303 11.4791 8.83303 11.4678V9.86721C8.83303 9.78215 8.8323 9.68807 8.83889 9.60745C8.84597 9.52098 8.86386 9.40685 8.92385 9.28909L8.99221 9.17678C9.06911 9.07111 9.17057 8.98472 9.28811 8.92483L9.37502 8.88772C9.46104 8.85703 9.54151 8.84519 9.60647 8.83987C9.6871 8.83328 9.78118 8.83401 9.86623 8.83401H11.4668C11.4782 8.83401 11.4889 8.83304 11.499 8.83303C11.4991 8.82287 11.5 8.81215 11.5 8.80081V7.20022C11.5 7.11539 11.4993 7.02186 11.5059 6.94143C11.513 6.85493 11.5308 6.73998 11.5908 6.62209L11.6592 6.51077C11.7361 6.40497 11.8375 6.31778 11.9551 6.25784L12.042 6.22073C12.128 6.19011 12.2086 6.17915 12.2735 6.17385C12.3541 6.16727 12.4482 6.16702 12.5332 6.16702H14.1328C14.2179 6.16702 14.3119 6.16727 14.3926 6.17385C14.479 6.18091 14.5932 6.19795 14.711 6.25784C14.8677 6.33767 14.9953 6.46544 15.0752 6.62209C15.1353 6.73998 15.1531 6.85493 15.1602 6.94143C15.1667 7.02186 15.166 7.11539 15.166 7.20022V14.1338ZM9.83303 6.13381C9.83303 6.21887 9.83375 6.31293 9.82717 6.39358C9.82011 6.48001 9.80215 6.59416 9.74221 6.71194C9.66233 6.86872 9.53472 6.9963 9.37795 7.0762C9.26018 7.1362 9.14607 7.15408 9.05959 7.16116C8.97897 7.16774 8.88489 7.16702 8.79983 7.16702H7.19924C7.11441 7.16702 7.02089 7.1677 6.94045 7.16116C6.85395 7.15409 6.739 7.13626 6.62112 7.0762C6.46447 6.99629 6.3367 6.86863 6.25686 6.71194C6.19698 6.59421 6.17993 6.47997 6.17288 6.39358C6.16629 6.31292 6.16604 6.21889 6.16604 6.13381V4.5342C6.16604 4.44913 6.16629 4.35509 6.17288 4.27444C6.17993 4.18804 6.19698 4.07381 6.25686 3.95608L6.3262 3.84377C6.40301 3.73825 6.50376 3.65168 6.62112 3.59182L6.70901 3.55374C6.79482 3.52323 6.87565 3.51215 6.94045 3.50686C7.02089 3.50031 7.11441 3.501 7.19924 3.501H8.79983C8.88489 3.501 8.97897 3.50027 9.05959 3.50686C9.1245 3.51217 9.20511 3.52311 9.29104 3.55374L9.37795 3.59182L9.49026 3.66018C9.56064 3.71142 9.62265 3.77337 9.67385 3.84377L9.74221 3.95608L9.77932 4.04299C9.80996 4.12899 9.82187 4.20951 9.82717 4.27444C9.83375 4.35508 9.83303 4.44915 9.83303 4.5342V6.13381ZM4.50002 3.4678C4.50003 3.55264 4.49974 3.64615 4.49319 3.72659C4.48612 3.81309 4.46927 3.92804 4.4092 4.04592C4.32932 4.20267 4.20169 4.3303 4.04495 4.41018C3.92706 4.47025 3.81211 4.4871 3.72561 4.49416C3.64517 4.50071 3.55166 4.501 3.46682 4.501H1.86623C1.78118 4.501 1.6871 4.50075 1.60647 4.49416C1.52004 4.48709 1.40581 4.47011 1.28811 4.41018C1.13137 4.33032 1.00375 4.20263 0.923852 4.04592C0.863786 3.92804 0.845959 3.81309 0.838891 3.72659C0.832348 3.64616 0.83303 3.55262 0.833032 3.4678V1.86721C0.833031 1.78215 0.832304 1.68807 0.838891 1.60745C0.845969 1.52098 0.863861 1.40685 0.923852 1.28909L0.992212 1.17678C1.06911 1.07111 1.17057 0.984717 1.28811 0.924829L1.37502 0.887719C1.46104 0.857033 1.54151 0.845186 1.60647 0.839868C1.6871 0.83328 1.78118 0.834008 1.86623 0.834008H3.46682C3.55164 0.834007 3.64518 0.833325 3.72561 0.839868C3.79046 0.845166 3.87116 0.857155 3.95706 0.887719L4.04495 0.924829L4.15627 0.993188C4.22672 1.04438 4.2886 1.1064 4.33987 1.17678L4.4092 1.28909L4.44631 1.376C4.47696 1.46195 4.48787 1.54252 4.49319 1.60745C4.49978 1.68807 4.50002 1.78215 4.50002 1.86721V3.4678Z" fill="currentColor"/>
</g>
<defs>
<clipPath id="clip0_603_12383">
<rect width="16" height="16" fill="white"/>
</clipPath>
</defs>
</svg>
