<svg width="16" height="16" viewBox="0 0 16 16" fill="none" xmlns="http://www.w3.org/2000/svg">
<path d="M7.99959 2.83301C9.85585 2.83301 11.3747 3.65343 12.5084 4.59961C13.6406 5.54458 14.4189 6.63899 14.8092 7.25684C14.8919 7.38779 14.9881 7.53137 15.0357 7.73926C15.0716 7.89603 15.0716 8.10402 15.0357 8.26074C14.988 8.46842 14.8918 8.61132 14.8092 8.74219C14.419 9.36 13.6408 10.4553 12.5084 11.4004C11.3747 12.3465 9.85571 13.166 7.99959 13.166C6.14346 13.1659 4.62443 12.3465 3.49081 11.4004C2.35834 10.4552 1.58017 9.35995 1.19002 8.74219C1.10739 8.61135 1.01212 8.46834 0.964438 8.26074C0.92851 8.10399 0.928531 7.89604 0.964438 7.73926C1.01209 7.53138 1.10732 7.38779 1.19002 7.25684C1.58017 6.63909 2.35862 5.54465 3.49081 4.59961C4.62443 3.65347 6.14346 2.83309 7.99959 2.83301ZM7.99959 3.83301C6.45273 3.83309 5.15367 4.51488 4.13241 5.36719C3.10996 6.22054 2.39587 7.22079 2.03573 7.79102C1.98655 7.86888 1.96581 7.90359 1.95174 7.93066C1.94301 7.94749 1.94117 7.95364 1.93905 7.96289C1.9389 7.96414 1.93825 7.96587 1.93807 7.96777C1.93728 7.97624 1.93709 7.98764 1.93709 8C1.9371 8.01233 1.93728 8.0238 1.93807 8.03223C1.93827 8.03427 1.93889 8.03586 1.93905 8.03711C1.94115 8.04624 1.94304 8.05258 1.95174 8.06934C1.96581 8.09634 1.98685 8.13061 2.03573 8.20801C2.39584 8.77822 3.10988 9.7794 4.13241 10.6328C5.15362 11.485 6.45289 12.1659 7.99959 12.166C9.54655 12.166 10.8464 11.4851 11.8678 10.6328C12.8903 9.7794 13.6043 8.77822 13.9644 8.20801C14.0133 8.13058 14.0344 8.09634 14.0484 8.06934C14.0572 8.05252 14.059 8.04629 14.0611 8.03711C14.0599 8.04235 14.0603 8.04098 14.0611 8.03223C14.0619 8.0238 14.0631 8.01233 14.0631 8C14.0631 7.98762 14.0619 7.97625 14.0611 7.96777C14.0609 7.9659 14.0613 7.96413 14.0611 7.96289C14.059 7.95368 14.0571 7.94735 14.0484 7.93066C14.0344 7.90359 14.0136 7.86883 13.9644 7.79102C13.6043 7.22082 12.8902 6.22058 11.8678 5.36719C10.8464 4.51476 9.54668 3.83301 7.99959 3.83301ZM9.49959 8C9.49959 7.17157 8.82802 6.5 7.99959 6.5C7.17129 6.50015 6.49959 7.17166 6.49959 8C6.49977 8.82819 7.1714 9.49985 7.99959 9.5C8.82791 9.5 9.49942 8.82828 9.49959 8ZM10.4996 8C10.4994 9.38056 9.3802 10.5 7.99959 10.5C6.61911 10.4999 5.49977 9.38047 5.49959 8C5.49959 6.61938 6.61901 5.50015 7.99959 5.5C9.38031 5.5 10.4996 6.61929 10.4996 8Z" fill="currentColor"/>
</svg>
