<svg width="16" height="16" viewBox="0 0 16 16" fill="none" xmlns="http://www.w3.org/2000/svg">
<path d="M2.16699 11.4678V4.5342C2.16699 3.98239 2.16699 3.53829 2.19629 3.1797C2.22606 2.81536 2.28863 2.49533 2.43945 2.19924C2.67914 1.72883 3.06182 1.34615 3.53223 1.10646C3.82832 0.955636 4.14835 0.893067 4.5127 0.863298C4.87128 0.834 5.31539 0.834001 5.86719 0.834001H8.00781C8.47319 0.834001 8.78776 0.831049 9.08887 0.903337C9.23458 0.938324 9.37598 0.987622 9.5127 1.04787C9.52831 1.05387 9.5428 1.06187 9.55762 1.06935C9.64422 1.1096 9.72986 1.15213 9.81152 1.20217C10.0755 1.36395 10.295 1.58896 10.624 1.91799L12.75 4.04299C13.0791 4.37206 13.303 4.59243 13.4648 4.85646C13.5163 4.9405 13.5614 5.02794 13.6025 5.1172C13.6074 5.12718 13.612 5.13714 13.6162 5.14748C13.678 5.28655 13.729 5.43068 13.7646 5.57912C13.8368 5.88007 13.834 6.19413 13.834 6.6592V11.4678C13.834 12.0192 13.834 12.4629 13.8047 12.8213C13.7749 13.1857 13.7124 13.5066 13.5615 13.8028C13.3219 14.273 12.939 14.6549 12.4688 14.8945C12.1727 15.0454 11.8526 15.1089 11.4883 15.1387C11.1297 15.168 10.6855 15.167 10.1338 15.167H5.86719C5.3154 15.167 4.87128 15.168 4.5127 15.1387C4.14829 15.1089 3.82836 15.0454 3.53223 14.8945C3.06193 14.6549 2.67915 14.273 2.43945 13.8028C2.28856 13.5066 2.22606 13.1857 2.19629 12.8213C2.16702 12.4629 2.16699 12.0192 2.16699 11.4678ZM3.16699 11.4678C3.16699 12.0358 3.16719 12.4319 3.19238 12.7403C3.21711 13.0428 3.26299 13.217 3.33008 13.3486C3.47389 13.6308 3.70412 13.8601 3.98633 14.0039C4.11792 14.0709 4.29162 14.1169 4.59375 14.1416C4.90217 14.1668 5.29888 14.167 5.86719 14.167H10.1338C10.7019 14.167 11.0979 14.1668 11.4062 14.1416C11.7088 14.1169 11.883 14.071 12.0146 14.0039C12.2968 13.8602 12.5261 13.6307 12.6699 13.3486C12.737 13.217 12.7829 13.0428 12.8076 12.7403C12.8328 12.4319 12.834 12.0358 12.834 11.4678V6.6592C12.834 6.16936 12.8295 5.98806 12.7959 5.834H10.4004C10.222 5.834 10.0581 5.83438 9.92188 5.82326C9.77982 5.81165 9.62421 5.78524 9.4707 5.70705C9.25127 5.59524 9.0728 5.41668 8.96094 5.19728C8.88275 5.04382 8.85635 4.88814 8.84473 4.74611C8.8336 4.60993 8.83398 4.44593 8.83398 4.2676V1.87111C8.67986 1.83748 8.49805 1.834 8.00781 1.834H5.86719C5.29888 1.834 4.90217 1.83419 4.59375 1.85939C4.2917 1.88409 4.11791 1.93013 3.98633 1.99709C3.70408 2.1409 3.47389 2.37109 3.33008 2.65334C3.26313 2.78491 3.21709 2.95871 3.19238 3.26076C3.16718 3.56918 3.16699 3.96589 3.16699 4.5342V11.4678ZM9.84082 4.66408C9.84737 4.74423 9.85709 4.75405 9.85156 4.74318C9.86754 4.77451 9.89348 4.79947 9.9248 4.81545C9.93308 4.81773 9.95565 4.82231 10.0029 4.82619C10.089 4.83322 10.2055 4.834 10.4004 4.834H12.125C12.0989 4.80778 12.0721 4.77916 12.043 4.75002L9.91699 2.62502C9.888 2.59602 9.86008 2.569 9.83398 2.54299V4.2676C9.83398 4.46205 9.83382 4.57808 9.84082 4.66408Z" fill="currentColor"/>
</svg>
