<svg width="16" height="16" viewBox="0 0 16 16" fill="none" xmlns="http://www.w3.org/2000/svg">
<path d="M8.90713 2.73341C8.90713 2.53896 8.90729 2.42292 8.90029 2.33692C8.89374 2.25667 8.88398 2.24689 8.88955 2.25782C8.8736 2.22651 8.8476 2.20154 8.81631 2.18555C8.80816 2.1833 8.78563 2.17871 8.73818 2.17481C8.65211 2.16778 8.53561 2.167 8.34072 2.167H3.03311C2.7912 2.167 2.64222 2.16712 2.53311 2.17676C2.4277 2.18609 2.41867 2.20099 2.43447 2.19141C2.39966 2.21251 2.37331 2.24532 2.36123 2.28419C2.36649 2.26692 2.35554 2.27979 2.37197 2.3838C2.38908 2.49201 2.42461 2.63632 2.4833 2.8711L3.46475 6.79688H8.34072C8.53561 6.79688 8.65211 6.7961 8.73818 6.78907C8.81792 6.78253 8.82713 6.77283 8.81631 6.77833C8.84758 6.76238 8.87358 6.73732 8.88955 6.70606C8.88418 6.71671 8.89377 6.70676 8.90029 6.62696C8.90731 6.54089 8.90713 6.4243 8.90713 6.2295V2.73341ZM9.90713 6.2295C9.90713 6.40793 9.90752 6.57274 9.89639 6.70899C9.88477 6.85085 9.85818 7.00593 9.78018 7.15919C9.66832 7.37871 9.48993 7.55808 9.27041 7.66993C9.1169 7.74812 8.9613 7.77453 8.81924 7.78614C8.68301 7.79727 8.51912 7.79688 8.34072 7.79688H7.7958V9.04493C7.7958 9.23939 7.79662 9.3554 7.80361 9.44141C7.81015 9.52145 7.81983 9.53131 7.81436 9.52051C7.83034 9.55184 7.85627 9.57682 7.8876 9.59278C7.89606 9.59509 7.91869 9.59968 7.96572 9.60352C8.05181 9.61056 8.16825 9.61133 8.36318 9.61133H13.4267C13.4461 9.61133 13.4648 9.61037 13.4823 9.61036C13.4739 9.59507 13.4654 9.57844 13.456 9.56153L12.4765 7.79884C12.4397 7.73267 12.3643 7.60758 12.3349 7.46485C12.3121 7.35413 12.3121 7.23963 12.3349 7.12891L12.3642 7.0254C12.3995 6.92703 12.4489 6.84457 12.4765 6.79493L13.456 5.03126C13.4656 5.01397 13.4737 4.99704 13.4823 4.98145H9.90713V6.2295ZM9.90713 3.98145H13.4267C13.5659 3.98145 13.7055 3.98079 13.8192 3.99122C13.9029 3.9989 14.0183 4.01605 14.1356 4.07032L14.2528 4.13868L14.3212 4.19337C14.4509 4.30906 14.5418 4.46227 14.58 4.63184L14.5946 4.71876L14.5976 4.85352C14.5881 4.98285 14.5456 5.09194 14.5116 5.16895C14.4655 5.27335 14.3976 5.39493 14.33 5.51661L13.3505 7.28028C13.3474 7.28593 13.3435 7.29089 13.3407 7.29591C13.3436 7.30117 13.3472 7.30653 13.3505 7.31251L14.33 9.07618C14.3976 9.19791 14.4655 9.31938 14.5116 9.42383C14.5569 9.52641 14.6166 9.68656 14.5946 9.87501C14.5674 10.1076 14.443 10.3184 14.2528 10.4551C14.0991 10.5655 13.9308 10.5913 13.8192 10.6016C13.7055 10.612 13.5659 10.6113 13.4267 10.6113H8.36318C8.18492 10.6113 8.02085 10.6117 7.88467 10.6006C7.74267 10.589 7.58694 10.5625 7.4335 10.4844C7.21408 10.3726 7.03559 10.194 6.92373 9.97462C6.84552 9.82111 6.81816 9.66551 6.80654 9.52344C6.79542 9.38724 6.7958 9.22329 6.7958 9.04493V7.79688H3.71475L5.31826 14.2129C5.385 14.4806 5.22257 14.7522 4.95498 14.8193C4.68712 14.8863 4.41555 14.7229 4.34854 14.4551L1.53311 3.1963V3.19337L1.5126 3.11329C1.4584 2.8965 1.40931 2.70208 1.38369 2.54005C1.35748 2.3742 1.34572 2.18482 1.40615 1.98926C1.49049 1.71641 1.67166 1.48394 1.91592 1.33594C2.09097 1.22989 2.27797 1.19547 2.44522 1.18067C2.60867 1.16624 2.80962 1.167 3.03311 1.167H8.34072C8.51913 1.167 8.68301 1.16661 8.81924 1.17774C8.96132 1.18935 9.11688 1.21572 9.27041 1.29395C9.48986 1.40577 9.66832 1.5843 9.78018 1.80372C9.85837 1.95718 9.88477 2.11286 9.89639 2.25489C9.90751 2.39107 9.90713 2.55507 9.90713 2.73341V3.98145Z" fill="currentColor"/>
</svg>
