<svg width="16" height="16" viewBox="0 0 16 16" fill="none" xmlns="http://www.w3.org/2000/svg">
<path d="M14.166 7.86627C14.166 7.29822 14.1658 6.90215 14.1406 6.59381C14.1159 6.29126 14.07 6.11709 14.0029 5.98542C13.8592 5.70335 13.6297 5.47392 13.3477 5.33014C13.216 5.26305 13.0418 5.21717 12.7393 5.19245C12.4309 5.16725 12.0349 5.16706 11.4668 5.16706H1.83301V10.7999C1.83301 11.3682 1.8332 11.7649 1.8584 12.0733C1.8831 12.3754 1.92914 12.5492 1.9961 12.6807C2.13991 12.963 2.3701 13.1932 2.65235 13.337C2.78392 13.4039 2.95772 13.45 3.25977 13.4747C3.56819 13.4999 3.9649 13.5001 4.53321 13.5001H11.4668C12.0349 13.5001 12.4309 13.4999 12.7393 13.4747C13.0418 13.45 13.216 13.4041 13.3477 13.337C13.6299 13.1932 13.8591 12.9629 14.0029 12.6807C14.0699 12.5491 14.1159 12.3754 14.1406 12.0733C14.1658 11.7649 14.166 11.3682 14.166 10.7999V7.86627ZM15.166 10.7999C15.166 11.3517 15.167 11.7958 15.1377 12.1544C15.1079 12.5188 15.0444 12.8387 14.8936 13.1348C14.6539 13.6051 14.272 13.9879 13.8018 14.2276C13.5056 14.3785 13.1847 14.441 12.8203 14.4708C12.4619 14.5 12.0182 14.5001 11.4668 14.5001H4.53321C3.9814 14.5001 3.5373 14.5001 3.17871 14.4708C2.81437 14.441 2.49434 14.3784 2.19824 14.2276C1.72784 13.9879 1.34515 13.6052 1.10547 13.1348C0.954645 12.8387 0.892077 12.5187 0.862307 12.1544C0.83301 11.7958 0.833011 11.3517 0.833011 10.7999V4.13385C0.833011 3.76873 0.832327 3.46428 0.852542 3.21686C0.873236 2.96363 0.918653 2.72586 1.03321 2.50104C1.20895 2.15622 1.48917 1.876 1.83399 1.70026C2.05881 1.58571 2.29658 1.54029 2.54981 1.51959C2.79723 1.49938 3.10168 1.50006 3.4668 1.50006H6.01465C6.45688 1.50006 6.7971 1.49399 7.10645 1.60065C7.36334 1.68926 7.59785 1.83335 7.792 2.0235C8.0258 2.25252 8.17231 2.56049 8.37012 2.95612L8.97559 4.16706H11.4668C12.0182 4.16706 12.4619 4.16612 12.8203 4.19538C13.1847 4.22515 13.5056 4.28862 13.8018 4.43952C14.2718 4.67914 14.6539 5.06128 14.8936 5.53131C15.0445 5.82746 15.1079 6.14833 15.1377 6.51276C15.167 6.87119 15.166 7.31487 15.166 7.86627V10.7999ZM1.83301 4.16706H7.85742L7.47559 3.40338C7.24535 2.94291 7.17729 2.82208 7.0918 2.73834C7.00355 2.65191 6.89705 2.58624 6.78028 2.54596C6.6672 2.50702 6.52902 2.50006 6.01465 2.50006H3.4668C3.08518 2.50006 2.82811 2.50055 2.63086 2.51667C2.43983 2.53231 2.34841 2.56016 2.28809 2.59088C2.13129 2.67078 2.00373 2.79834 1.92383 2.95514C1.89311 3.01547 1.86525 3.10688 1.84961 3.29792C1.8335 3.49517 1.83301 3.75223 1.83301 4.13385V4.16706Z" fill="currentColor"/>
</svg>
