<svg width="16" height="16" viewBox="0 0 16 16" fill="none" xmlns="http://www.w3.org/2000/svg">
<path d="M8.00033 0.666504C3.94899 0.666504 0.666992 3.9485 0.666992 7.99984C0.666992 11.2445 2.76633 13.9858 5.68099 14.9572C6.04766 15.0212 6.18499 14.8018 6.18499 14.6092C6.18499 14.4345 6.17633 13.8572 6.17633 13.2432C4.33366 13.5825 3.85699 12.7938 3.71033 12.3818C3.62766 12.1705 3.27033 11.5198 2.95899 11.3458C2.70233 11.2078 2.33499 10.8692 2.94966 10.8598C3.52699 10.8505 3.93966 11.3912 4.07699 11.6118C4.73699 12.7205 5.79099 12.4092 6.21299 12.2165C6.27699 11.7398 6.46966 11.4192 6.68033 11.2358C5.04833 11.0525 3.34366 10.4198 3.34366 7.6145C3.34366 6.81717 3.62766 6.15717 4.09566 5.64384C4.02166 5.4605 3.76499 4.70917 4.16899 3.7005C4.16899 3.7005 4.78299 3.5085 6.18499 4.4525C6.78198 4.28693 7.3988 4.20372 8.01833 4.20517C8.64233 4.20517 9.26566 4.28717 9.85166 4.4525C11.2543 3.49917 11.8683 3.7005 11.8683 3.7005C12.2717 4.70917 12.0157 5.4605 11.9423 5.64384C12.4097 6.15717 12.6937 6.8085 12.6937 7.6145C12.6937 10.4292 10.9797 11.0525 9.34766 11.2358C9.61366 11.4652 9.84299 11.9052 9.84299 12.5925C9.84299 13.5732 9.83366 14.3618 9.83366 14.6092C9.83366 14.8018 9.97099 15.0305 10.3377 14.9572C13.2343 13.9858 15.3337 11.2358 15.3337 7.99984C15.3337 3.9485 12.0523 0.666504 8.00033 0.666504Z" fill="currentColor"/>
</svg>
