<svg width="16" height="16" viewBox="0 0 16 16" fill="none" xmlns="http://www.w3.org/2000/svg">
<path d="M9.66602 14.167C9.94205 14.167 10.1658 14.391 10.166 14.667C10.166 14.9431 9.94216 15.167 9.66602 15.167H6.33301C6.05687 15.167 5.83301 14.9431 5.83301 14.667C5.83318 14.391 6.05697 14.167 6.33301 14.167H9.66602ZM12.166 6.00098C12.166 3.6999 10.301 1.83416 8 1.83398C5.69881 1.83398 3.83301 3.69979 3.83301 6.00098C3.83313 7.66211 4.80525 9.09731 6.21387 9.7666C6.38808 9.84936 6.49983 10.0249 6.5 10.2178V10.667C6.5 10.9845 6.49949 11.1983 6.51074 11.3633C6.5217 11.5235 6.54219 11.6019 6.56348 11.6533C6.64804 11.8571 6.80988 12.0189 7.01367 12.1035C7.06506 12.1248 7.14351 12.1453 7.30371 12.1562C7.46869 12.1675 7.68253 12.167 8 12.167C8.31729 12.167 8.53039 12.1675 8.69531 12.1562C8.85573 12.1453 8.93393 12.1248 8.98535 12.1035C9.18935 12.0189 9.35194 11.8573 9.43652 11.6533C9.45781 11.6019 9.47732 11.5235 9.48828 11.3633C9.49954 11.1983 9.5 10.9845 9.5 10.667V10.2178C9.50018 10.0249 9.61094 9.84936 9.78516 9.7666C11.1939 9.09736 12.1659 7.66222 12.166 6.00098ZM13.166 6.00098C13.1659 7.94779 12.0887 9.64102 10.5 10.5215V10.667C10.5 10.9707 10.4995 11.2238 10.4854 11.4307C10.4709 11.6419 10.4404 11.8417 10.3604 12.0352C10.1743 12.4843 9.81722 12.8412 9.36816 13.0273C9.1747 13.1075 8.97491 13.1389 8.76367 13.1533C8.55684 13.1674 8.30364 13.167 8 13.167C7.69632 13.167 7.4432 13.1674 7.23633 13.1533C7.025 13.1389 6.82536 13.1075 6.63184 13.0273C6.18262 12.8413 5.82572 12.4844 5.63965 12.0352C5.55952 11.8416 5.52809 11.642 5.51367 11.4307C5.49957 11.2238 5.5 10.9707 5.5 10.667V10.5215C3.91103 9.6411 2.83313 7.94799 2.83301 6.00098C2.83301 3.14751 5.14653 0.833984 8 0.833984C10.8533 0.83416 13.166 3.14761 13.166 6.00098Z" fill="currentColor"/>
</svg>
