<svg width="16" height="16" viewBox="0 0 16 16" fill="none" xmlns="http://www.w3.org/2000/svg">
<path d="M6.33301 14.6668H9.66634M9.99967 10.2177C11.5763 9.46877 12.6663 7.86176 12.6663 6.00016C12.6663 3.42283 10.577 1.3335 7.99967 1.3335C5.42235 1.3335 3.33301 3.42283 3.33301 6.00016C3.33301 7.86176 4.42304 9.46877 5.99967 10.2177V10.6668C5.99967 11.2881 5.99967 11.5987 6.10117 11.8437C6.23649 12.1704 6.49606 12.43 6.82276 12.5653C7.06779 12.6668 7.37842 12.6668 7.99967 12.6668C8.62093 12.6668 8.93156 12.6668 9.17659 12.5653C9.50329 12.43 9.76285 12.1704 9.89818 11.8437C9.99967 11.5987 9.99967 11.2881 9.99967 10.6668V10.2177Z" stroke="currentColor" stroke-linecap="round" stroke-linejoin="round"/>
</svg>
