<svg width="16" height="16" viewBox="0 0 16 16" fill="none" xmlns="http://www.w3.org/2000/svg">
<path d="M14 11.5C14.2761 11.5 14.5 11.7239 14.5 12C14.5 12.2761 14.2761 12.5 14 12.5H2C1.72386 12.5 1.5 12.2761 1.5 12C1.5 11.7239 1.72386 11.5 2 11.5H14ZM14 8.83301C14.276 8.83301 14.4998 9.05701 14.5 9.33301C14.5 9.60915 14.2761 9.83301 14 9.83301H2C1.72386 9.83301 1.5 9.60915 1.5 9.33301C1.50018 9.05701 1.72397 8.83301 2 8.83301H14ZM14 6.16699C14.2761 6.16699 14.5 6.39085 14.5 6.66699C14.4998 6.94299 14.276 7.16699 14 7.16699H2C1.72397 7.16699 1.50018 6.94299 1.5 6.66699C1.5 6.39085 1.72386 6.16699 2 6.16699H14ZM14 3.5C14.2761 3.5 14.5 3.72386 14.5 4C14.5 4.27614 14.2761 4.5 14 4.5H2C1.72386 4.5 1.5 4.27614 1.5 4C1.5 3.72386 1.72386 3.5 2 3.5H14Z" fill="currentColor"/>
</svg>
