<svg width="16" height="16" viewBox="0 0 16 16" fill="none" xmlns="http://www.w3.org/2000/svg">
<path d="M12.834 9.86621C12.834 9.29815 12.8328 8.90209 12.8076 8.59375C12.7829 8.29121 12.737 8.11702 12.6699 7.98535C12.5261 7.70327 12.2968 7.47383 12.0146 7.33008C11.883 7.26299 11.7088 7.2171 11.4062 7.19238C11.0979 7.16721 10.7019 7.16699 10.1338 7.16699H5.86719C5.29888 7.16699 4.90217 7.16718 4.59375 7.19238C4.29161 7.21709 4.11792 7.26309 3.98633 7.33008C3.70412 7.47387 3.47389 7.70315 3.33008 7.98535C3.26299 8.11703 3.21711 8.29118 3.19238 8.59375C3.16719 8.90209 3.16699 9.29815 3.16699 9.86621V10.7998C3.16699 11.3681 3.16718 11.7648 3.19238 12.0732C3.21709 12.3753 3.26313 12.5491 3.33008 12.6807C3.47389 12.9629 3.70409 13.1931 3.98633 13.3369C4.11791 13.4039 4.2917 13.4499 4.59375 13.4746C4.90217 13.4998 5.29888 13.5 5.86719 13.5H10.1338C10.7018 13.5 11.0979 13.4998 11.4062 13.4746C11.7087 13.4499 11.883 13.404 12.0146 13.3369C12.2969 13.1931 12.5261 12.9629 12.6699 12.6807C12.7369 12.5491 12.7829 12.3755 12.8076 12.0732C12.8328 11.7648 12.834 11.3681 12.834 10.7998V9.86621ZM10.834 5.33301C10.8338 3.76835 9.5647 2.5 8 2.5C6.43545 2.50018 5.16717 3.76846 5.16699 5.33301V6.16895C5.37864 6.16612 5.61143 6.16699 5.86719 6.16699H10.1338C10.3896 6.16699 10.6223 6.16611 10.834 6.16895V5.33301ZM11.834 6.23926C12.0603 6.27785 12.2701 6.33824 12.4688 6.43945C12.939 6.67911 13.3219 7.06101 13.5615 7.53125C13.7124 7.8274 13.7749 8.14827 13.8047 8.5127C13.834 8.87113 13.834 9.31479 13.834 9.86621V10.7998C13.834 11.3516 13.834 11.7957 13.8047 12.1543C13.7749 12.5186 13.7123 12.8387 13.5615 13.1348C13.3219 13.6051 12.9391 13.9879 12.4688 14.2275C12.1727 14.3784 11.8526 14.4409 11.4883 14.4707C11.1297 14.5 10.6855 14.5 10.1338 14.5H5.86719C5.31539 14.5 4.87128 14.5 4.5127 14.4707C4.14835 14.4409 3.82832 14.3784 3.53223 14.2275C3.06182 13.9879 2.67914 13.6052 2.43945 13.1348C2.28863 12.8387 2.22606 12.5186 2.19629 12.1543C2.16699 11.7957 2.16699 11.3516 2.16699 10.7998V9.86621C2.16699 9.31478 2.16702 8.87113 2.19629 8.5127C2.22606 8.14827 2.28856 7.8274 2.43945 7.53125C2.67915 7.061 3.06193 6.67908 3.53223 6.43945C3.73094 6.33821 3.94055 6.27785 4.16699 6.23926V5.33301C4.16717 3.21617 5.88317 1.50018 8 1.5C10.117 1.5 11.8338 3.21607 11.834 5.33301V6.23926Z" fill="currentColor"/>
</svg>
