<svg width="16" height="16" viewBox="0 0 16 16" fill="none" xmlns="http://www.w3.org/2000/svg">
<g clip-path="url(#clip0_603_12381)">
<path d="M14.1399 10.5932C13.7158 11.5962 13.0525 12.48 12.2079 13.1674C11.3633 13.8548 10.3631 14.3248 9.2949 14.5364C8.22668 14.748 7.12289 14.6946 6.08004 14.3811C5.03719 14.0675 4.08703 13.5033 3.31262 12.7377C2.53822 11.972 1.96315 11.0284 1.6377 9.98918C1.31225 8.94998 1.24632 7.84688 1.44568 6.77631C1.64503 5.70574 2.10361 4.7003 2.78131 3.8479C3.45901 2.9955 4.3352 2.3221 5.33328 1.88655M14.1591 5.44866C14.426 6.09297 14.5897 6.77413 14.6453 7.46711C14.659 7.63831 14.6659 7.72391 14.6319 7.80102C14.6035 7.86543 14.5472 7.92638 14.4853 7.95984C14.4111 7.99988 14.3185 7.99988 14.1333 7.99988H8.53328C8.34659 7.99988 8.25325 7.99988 8.18195 7.96355C8.11923 7.93159 8.06823 7.8806 8.03627 7.81788C7.99994 7.74658 7.99994 7.65323 7.99994 7.46655V1.86655C7.99994 1.68131 7.99994 1.58868 8.03999 1.51454C8.07345 1.4526 8.1344 1.39634 8.19881 1.36795C8.27592 1.33395 8.36152 1.34081 8.53272 1.35454C9.2257 1.4101 9.90686 1.57381 10.5512 1.84069C11.36 2.17572 12.0949 2.66678 12.714 3.28584C13.333 3.9049 13.8241 4.63982 14.1591 5.44866Z" stroke="currentColor" stroke-linecap="round" stroke-linejoin="round"/>
</g>
<defs>
<clipPath id="clip0_603_12381">
<rect width="16" height="16" fill="white"/>
</clipPath>
</defs>
</svg>
