<svg width="16" height="16" viewBox="0 0 16 16" fill="none" xmlns="http://www.w3.org/2000/svg">
<g clip-path="url(#clip0_603_12381)">
<path d="M5.13287 1.42899C5.38596 1.31854 5.6816 1.43468 5.79205 1.68777C5.9021 1.94075 5.78617 2.23561 5.53326 2.34598C4.61024 2.74881 3.7997 3.37119 3.17291 4.15945C2.54608 4.94787 2.12198 5.87824 1.93756 6.86844C1.75317 7.85863 1.81431 8.87893 2.11529 9.84012C2.41633 10.8014 2.9478 11.6749 3.66412 12.3831C4.38032 13.0911 5.25927 13.6126 6.22369 13.9026C7.18833 14.1927 8.21019 14.2429 9.1983 14.0471C10.1863 13.8514 11.1115 13.4163 11.8926 12.7805C12.6738 12.1448 13.2874 11.3273 13.6797 10.3997C13.7873 10.1454 14.0807 10.0255 14.335 10.1331C14.5892 10.2406 14.7079 10.5341 14.6006 10.7884C14.1447 11.8666 13.4314 12.817 12.5235 13.5559C11.6155 14.2949 10.54 14.8002 9.39166 15.0276C8.24359 15.2549 7.05739 15.1976 5.93658 14.8606C4.81551 14.5235 3.79348 13.9171 2.96099 13.094C2.12854 12.271 1.51007 11.2561 1.16021 10.1389C0.810516 9.02204 0.739945 7.83642 0.954158 6.68582C1.16846 5.53499 1.66121 4.4537 2.3897 3.53738C3.11814 2.62116 4.06009 1.8972 5.13287 1.42899ZM8.57232 0.85672C9.31714 0.916434 10.0497 1.09238 10.7422 1.37918C11.6117 1.73931 12.402 2.26748 13.0674 2.93289C13.7329 3.59838 14.261 4.38859 14.6212 5.25809C14.908 5.95072 15.0839 6.68305 15.1436 7.42801C15.1531 7.54679 15.1865 7.78376 15.0899 8.0032C15.0167 8.16924 14.8824 8.31443 14.7227 8.40067C14.6035 8.46499 14.4873 8.48518 14.3956 8.49344C14.3125 8.5009 14.2164 8.50027 14.1329 8.50027H8.53326C8.44819 8.50027 8.35414 8.501 8.27349 8.49442C8.18701 8.48734 8.07293 8.46948 7.95513 8.40945C7.79836 8.32956 7.67076 8.20198 7.59088 8.0452C7.53095 7.92743 7.51298 7.81326 7.50592 7.72684C7.49934 7.6462 7.50006 7.55211 7.50006 7.46707V1.86746C7.50006 1.78381 7.4994 1.68794 7.50689 1.60477C7.51515 1.51305 7.5353 1.39685 7.59967 1.27762L7.67486 1.16336C7.75973 1.05495 7.87258 0.966339 7.99713 0.911407C8.21647 0.814704 8.45336 0.847149 8.57232 0.85672ZM8.50006 7.50027H14.1456C14.0936 6.86194 13.9432 6.23448 13.6973 5.6409C13.3874 4.89273 12.933 4.21255 12.3604 3.63992C11.7878 3.06737 11.1075 2.61288 10.3594 2.30301C9.76583 2.0572 9.1384 1.90572 8.50006 1.85379V7.50027Z" fill="currentColor"/>
</g>
<defs>
<clipPath id="clip0_603_12381">
<rect width="16" height="16" fill="white"/>
</clipPath>
</defs>
</svg>
