<svg width="16" height="16" viewBox="0 0 16 16" fill="none" xmlns="http://www.w3.org/2000/svg">
<path d="M6.26369 12.9142L6.65332 13.7905C6.76914 14.0514 6.95817 14.273 7.19747 14.4286C7.43677 14.5841 7.71606 14.6669 8.00147 14.6668C8.28687 14.6669 8.56616 14.5841 8.80546 14.4286C9.04476 14.273 9.23379 14.0514 9.34961 13.7905L9.73924 12.9142C9.87794 12.6033 10.1112 12.3441 10.4059 12.1735C10.7024 12.0025 11.0455 11.9296 11.3859 11.9653L12.3392 12.0668C12.623 12.0968 12.9094 12.0439 13.1637 11.9144C13.418 11.7849 13.6292 11.5844 13.7718 11.3372C13.9146 11.0902 13.9826 10.807 13.9677 10.5221C13.9527 10.2372 13.8553 9.9627 13.6874 9.73201L13.1229 8.95646C12.922 8.67825 12.8146 8.34337 12.8163 8.00016C12.8162 7.65789 12.9246 7.3244 13.1259 7.04757L13.6904 6.27201C13.8583 6.04133 13.9556 5.76688 13.9706 5.48194C13.9856 5.19701 13.9176 4.91386 13.7748 4.66683C13.6322 4.41965 13.4209 4.21916 13.1667 4.08965C12.9124 3.96014 12.626 3.90718 12.3422 3.9372L11.3889 4.03868C11.0484 4.07444 10.7054 4.00158 10.4089 3.83053C10.1136 3.659 9.88025 3.3984 9.74221 3.08609L9.34961 2.20979C9.23379 1.94894 9.04476 1.72731 8.80546 1.57176C8.56616 1.41622 8.28687 1.33345 8.00147 1.3335C7.71606 1.33345 7.43677 1.41622 7.19747 1.57176C6.95817 1.72731 6.76914 1.94894 6.65332 2.20979L6.26369 3.08609C6.12564 3.3984 5.89227 3.659 5.59702 3.83053C5.3005 4.00158 4.95747 4.07444 4.61702 4.03868L3.66072 3.9372C3.37694 3.90718 3.09055 3.96014 2.83627 4.08965C2.58198 4.21916 2.37073 4.41965 2.22813 4.66683C2.08535 4.91386 2.01732 5.19701 2.03231 5.48194C2.0473 5.76688 2.14466 6.04133 2.31258 6.27201L2.87702 7.04757C3.07831 7.3244 3.18671 7.65789 3.18665 8.00016C3.18671 8.34244 3.07831 8.67593 2.87702 8.95276L2.31258 9.72831C2.14466 9.95899 2.0473 10.2334 2.03231 10.5184C2.01732 10.8033 2.08535 11.0865 2.22813 11.3335C2.37088 11.5805 2.58215 11.7809 2.8364 11.9104C3.09064 12.0399 3.37697 12.093 3.66072 12.0631L4.61406 11.9616C4.9545 11.9259 5.29753 11.9987 5.59406 12.1698C5.89041 12.3408 6.12486 12.6015 6.26369 12.9142Z" stroke="currentColor" stroke-linecap="round" stroke-linejoin="round"/>
<path d="M8.00027 10.0002C9.10484 10.0002 10.0003 9.10473 10.0003 8.00016C10.0003 6.89559 9.10484 6.00016 8.00027 6.00016C6.8957 6.00016 6.00027 6.89559 6.00027 8.00016C6.00027 9.10473 6.8957 10.0002 8.00027 10.0002Z" stroke="currentColor" stroke-linecap="round" stroke-linejoin="round"/>
</svg>
