<svg width="16" height="16" viewBox="0 0 16 16" fill="none" xmlns="http://www.w3.org/2000/svg">
<path d="M8.00078 0.834961C8.38295 0.834899 8.75751 0.945043 9.07793 1.15332C9.398 1.36143 9.65039 1.65799 9.80547 2.00684L10.1981 2.88184L10.199 2.88477C10.2942 3.10002 10.4556 3.27899 10.659 3.39746L10.8182 3.47363C10.9822 3.53642 11.1594 3.5604 11.3357 3.54199L12.2889 3.44043H12.2898C12.6697 3.40034 13.053 3.4712 13.3934 3.64453C13.7338 3.81789 14.0169 4.08615 14.2078 4.41699C14.399 4.7478 14.4896 5.12723 14.4695 5.50879C14.4494 5.89021 14.3193 6.25756 14.0945 6.56641L13.5301 7.3418C13.3909 7.53314 13.3162 7.76439 13.3162 8.00098V8.00293C13.315 8.2397 13.3888 8.47101 13.5272 8.66309L14.0916 9.43848C14.3163 9.7473 14.4465 10.1147 14.4666 10.4961C14.4842 10.8301 14.4167 11.1624 14.2713 11.4619L14.2049 11.5879C14.0139 11.9188 13.7308 12.187 13.3904 12.3604C13.0501 12.5337 12.6668 12.6045 12.2869 12.5645H12.2859L11.3328 12.4629V12.4619C11.0976 12.4374 10.86 12.4892 10.6551 12.6074C10.5028 12.6958 10.3742 12.8185 10.2791 12.9648L10.1961 13.1182L9.80645 13.9941C9.65135 14.3434 9.39831 14.6404 9.07793 14.8486C8.75768 15.0568 8.38371 15.1669 8.00176 15.167C7.61961 15.1671 7.24503 15.0569 6.92461 14.8486C6.64413 14.6663 6.41533 14.4159 6.2586 14.1221L6.1961 13.9941L5.80645 13.1182V13.1172C5.71053 12.9013 5.54817 12.7216 5.34356 12.6035C5.13872 12.4854 4.90195 12.4344 4.6668 12.459L3.71368 12.5605H3.7127C3.33286 12.6005 2.94952 12.5298 2.60918 12.3564C2.26887 12.1831 1.9858 11.9147 1.79473 11.584C1.60363 11.2532 1.51294 10.8736 1.53301 10.4922C1.55316 10.1108 1.68326 9.74337 1.90801 9.43457L2.47246 8.65918L2.56426 8.50879C2.64402 8.35219 2.68633 8.17836 2.68633 8.00098C2.68636 7.82341 2.64414 7.64892 2.56426 7.49219L2.47246 7.3418L1.90801 6.56641C1.68329 6.25757 1.5531 5.89021 1.53301 5.50879C1.51294 5.12723 1.60353 4.7478 1.79473 4.41699C1.98568 4.08615 2.26879 3.81789 2.60918 3.64453C2.94954 3.4712 3.33287 3.40034 3.7127 3.44043H3.71368L4.66973 3.54199C4.90467 3.56652 5.14079 3.51529 5.34551 3.39746C5.54921 3.27899 5.71114 3.10028 5.80645 2.88477V2.88379L6.1961 2.00684C6.35117 1.65783 6.60443 1.36151 6.92461 1.15332C7.24488 0.945146 7.61881 0.835009 8.00078 0.834961ZM9.49981 8.00098C9.49981 7.17255 8.82824 6.50098 7.99981 6.50098C7.17151 6.50112 6.49981 7.17264 6.49981 8.00098C6.49998 8.82916 7.17162 9.50083 7.99981 9.50098C8.82813 9.50098 9.49963 8.82925 9.49981 8.00098ZM3.68633 8.00098C3.68633 8.44876 3.54439 8.88489 3.28106 9.24707L2.71661 10.0234C2.6058 10.1758 2.54099 10.3568 2.53106 10.5449C2.52115 10.7332 2.56659 10.9207 2.66094 11.084C2.75534 11.2473 2.8952 11.3802 3.06328 11.4658C3.23104 11.5512 3.42003 11.5859 3.60723 11.5664L4.56133 11.4648C5.00669 11.4181 5.45565 11.5136 5.84356 11.7373C6.23155 11.9612 6.53876 12.3025 6.72051 12.7119L7.11016 13.5879L7.17657 13.7119C7.25139 13.8307 7.35094 13.9326 7.46953 14.0098C7.62759 14.1125 7.81228 14.1669 8.00078 14.167H8.00176C8.19027 14.1669 8.37495 14.1125 8.53301 14.0098C8.69109 13.907 8.81586 13.7602 8.89239 13.5879L9.28203 12.7119V12.7109C9.46361 12.3039 9.76935 11.9645 10.1551 11.7412H10.1561C10.4956 11.5454 10.8816 11.4479 11.2713 11.458L11.4383 11.4688L12.3924 11.5703H12.3914C12.5788 11.5901 12.7683 11.5552 12.9363 11.4697C13.1044 11.3841 13.2444 11.2513 13.3387 11.0879L13.4002 10.9609C13.4522 10.8306 13.476 10.69 13.4686 10.5488C13.4587 10.3605 13.394 10.1788 13.283 10.0264L12.7186 9.25098L12.7176 9.25C12.4545 8.88588 12.314 8.44723 12.3162 7.99805C12.3167 7.55103 12.4586 7.11548 12.7215 6.75391L13.2859 5.97852C13.3969 5.82608 13.4616 5.64434 13.4715 5.45605C13.4814 5.26792 13.4358 5.0811 13.3416 4.91797V4.91699C13.2473 4.75366 13.1073 4.62172 12.9393 4.53613C12.7714 4.45066 12.5826 4.4149 12.3953 4.43457L11.4412 4.53613C10.9958 4.58291 10.5469 4.48743 10.159 4.26367H10.157C9.77071 4.03917 9.46569 3.6977 9.28496 3.28906V3.28809L8.89336 2.41504L8.89239 2.41309C8.81583 2.24074 8.69113 2.094 8.53301 1.99121C8.37495 1.88847 8.19027 1.83403 8.00176 1.83398H8.00078C7.81228 1.83403 7.62759 1.88847 7.46953 1.99121C7.31142 2.094 7.18672 2.24074 7.11016 2.41309L6.72051 3.29004C6.53974 3.69832 6.23451 4.03932 5.84844 4.26367H5.84649C5.50694 4.45953 5.12096 4.55699 4.73125 4.54688L4.56426 4.53613L3.60821 4.43457C3.42065 4.41473 3.23135 4.45055 3.06328 4.53613C2.89525 4.62172 2.7552 4.75366 2.66094 4.91699V4.91797C2.56672 5.0811 2.52119 5.26792 2.53106 5.45605C2.54096 5.64434 2.60564 5.82608 2.71661 5.97852L3.28106 6.75391L3.37383 6.89355C3.57746 7.22593 3.6864 7.60903 3.68633 8.00098ZM10.4998 8.00098C10.4996 9.38154 9.38041 10.501 7.99981 10.501C6.61933 10.5008 5.49998 9.38145 5.49981 8.00098C5.49981 6.62036 6.61922 5.50112 7.99981 5.50098C9.38052 5.50098 10.4998 6.62027 10.4998 8.00098Z" fill="currentColor"/>
</svg>
