<svg width="16" height="16" viewBox="0 0 16 16" fill="none" xmlns="http://www.w3.org/2000/svg">
<path d="M7.535 14.4101C7.68259 14.4962 7.75639 14.5393 7.86054 14.5616C7.94136 14.5789 8.05929 14.5789 8.14011 14.5616C8.24426 14.5393 8.31806 14.4962 8.46565 14.4101C9.76435 13.6525 13.3337 11.2725 13.3337 8.00021V5.46687C13.3337 4.75094 13.3337 4.39298 13.2233 4.13888C13.1111 3.88061 12.9994 3.74322 12.7694 3.58081C12.5431 3.42103 12.0994 3.32876 11.2121 3.14422C10.2342 2.94083 9.48318 2.57357 8.79658 2.04242C8.46733 1.78772 8.30271 1.66037 8.17388 1.62563C8.03795 1.58898 7.9627 1.58898 7.82677 1.62563C7.69794 1.66037 7.53332 1.78772 7.20407 2.04242C6.51747 2.57357 5.76646 2.94083 4.78853 3.14422C3.90124 3.32876 3.4576 3.42103 3.23129 3.58081C3.00127 3.74322 2.88952 3.88061 2.77735 4.13887C2.66699 4.39298 2.66699 4.75094 2.66699 5.46687V8.00021C2.66699 11.2725 6.2363 13.6525 7.535 14.4101Z" stroke="currentColor" stroke-linecap="round" stroke-linejoin="round"/>
</svg>
