<svg width="16" height="16" viewBox="0 0 16 16" fill="none" xmlns="http://www.w3.org/2000/svg">
<path d="M12.834 5.4668C12.834 5.10226 12.8337 4.85266 12.8213 4.66211C12.8089 4.47306 12.7859 4.38697 12.7647 4.33789C12.72 4.23514 12.6853 4.1792 12.6523 4.13867C12.6195 4.0983 12.5724 4.05351 12.4814 3.98926C12.4464 3.96455 12.3539 3.91862 12.1113 3.85449C11.8772 3.79262 11.5597 3.72626 11.1104 3.63281C10.0564 3.4136 9.23541 3.01396 8.49024 2.4375C8.32117 2.30671 8.21066 2.22064 8.12598 2.16211C8.03586 2.09983 8.02126 2.10131 8.04395 2.10742C7.99827 2.09511 7.99203 2.0976 8 2.09766C7.99432 2.09854 7.98123 2.1009 7.95703 2.10742C7.97939 2.10136 7.96464 2.10018 7.875 2.16211C7.79028 2.22066 7.67895 2.30662 7.50977 2.4375C6.76472 3.01382 5.94434 3.41361 4.89063 3.63281C4.44131 3.72626 4.12375 3.79262 3.88965 3.85449C3.64689 3.91866 3.55455 3.96454 3.51953 3.98926C3.42824 4.05374 3.38059 4.09819 3.34766 4.13867C3.3147 4.1792 3.28094 4.23516 3.23633 4.33789C3.21505 4.38695 3.19207 4.47291 3.17969 4.66211C3.16723 4.85266 3.16699 5.10225 3.16699 5.4668V8C3.1671 9.44983 3.9599 10.7446 4.97461 11.8018C5.98379 12.8531 7.15683 13.6098 7.78711 13.9775C7.86611 14.0236 7.90328 14.0452 7.93262 14.0596C7.95292 14.0695 7.95992 14.071 7.96582 14.0723C7.96722 14.0725 7.9696 14.073 7.97266 14.0732C7.9801 14.0739 7.98955 14.0742 8 14.0742C8.01067 14.0742 8.02078 14.0739 8.02832 14.0732C8.03155 14.0729 8.03381 14.0725 8.03516 14.0723C8.04105 14.071 8.04716 14.0694 8.06738 14.0596C8.09679 14.0452 8.13446 14.0239 8.21387 13.9775C8.84423 13.6098 10.0173 12.853 11.0264 11.8018C12.0411 10.7446 12.8339 9.44982 12.834 8V5.4668ZM13.834 8C13.8339 9.82223 12.8416 11.3539 11.7471 12.4941C10.647 13.6401 9.38611 14.4519 8.71777 14.8418C8.586 14.9187 8.44162 15.0076 8.24512 15.0498C8.09522 15.082 7.90578 15.0819 7.75586 15.0498C7.55938 15.0077 7.41497 14.9187 7.2832 14.8418C6.61482 14.4519 5.35305 13.6402 4.25293 12.4941C3.15846 11.3539 2.1671 9.8222 2.16699 8V5.4668C2.16699 5.11566 2.16654 4.82756 2.18164 4.59668C2.19683 4.3647 2.22941 4.14442 2.31836 3.93945C2.3859 3.78393 2.46381 3.64115 2.57227 3.50781C2.68071 3.37451 2.80487 3.26966 2.94336 3.17188C3.13451 3.03701 3.37669 2.95567 3.63379 2.8877C3.89987 2.81737 4.24865 2.74537 4.68652 2.6543C5.5884 2.46673 6.27043 2.13231 6.89844 1.64648C7.05842 1.52272 7.19457 1.4173 7.30664 1.33984C7.41325 1.26618 7.54501 1.18344 7.69629 1.14258C7.78585 1.11843 7.8861 1.0977 8 1.09766C8.11392 1.09766 8.21414 1.11844 8.30371 1.14258C8.45522 1.18343 8.58762 1.26609 8.69434 1.33984C8.80644 1.41732 8.9425 1.52268 9.10254 1.64648C9.73045 2.13222 10.4118 2.46671 11.3135 2.6543C11.7513 2.74536 12.1001 2.81737 12.3662 2.8877C12.6236 2.95572 12.8663 3.03685 13.0576 3.17188C13.1961 3.26967 13.3203 3.37448 13.4287 3.50781C13.5371 3.64112 13.6141 3.78397 13.6816 3.93945C13.7707 4.14449 13.8032 4.36461 13.8184 4.59668C13.8335 4.82757 13.834 5.11563 13.834 5.4668V8Z" fill="currentColor"/>
</svg>
