<svg width="16" height="16" viewBox="0 0 16 16" fill="none" xmlns="http://www.w3.org/2000/svg">
<path d="M7.72786 1.29858C7.90405 1.23768 8.09558 1.23775 8.2718 1.29858L8.35871 1.33374L8.4261 1.37085C8.57463 1.4632 8.66489 1.59583 8.71907 1.68433C8.78523 1.79242 8.85469 1.93417 8.92707 2.08081L10.3841 5.03394C10.3868 5.03948 10.3895 5.04465 10.3919 5.04956C10.3974 5.05037 10.4033 5.05158 10.4095 5.05249L13.6702 5.52905C13.8319 5.55268 13.9875 5.57467 14.1107 5.60425C14.2259 5.63196 14.4107 5.68642 14.555 5.83862C14.7278 6.02105 14.8096 6.27211 14.7767 6.52124C14.7491 6.7292 14.6311 6.88136 14.554 6.97144C14.4716 7.0677 14.3586 7.1777 14.2415 7.29175L11.8831 9.58862C11.8788 9.59287 11.8743 9.59657 11.8704 9.60034C11.8714 9.60584 11.8723 9.61169 11.8734 9.61792L12.43 12.863C12.4577 13.0243 12.4844 13.18 12.4945 13.3064C12.5038 13.4247 12.5096 13.6172 12.4095 13.8015C12.2895 14.0222 12.0763 14.1765 11.8294 14.2224C11.6229 14.2607 11.4409 14.1966 11.3314 14.1511C11.2144 14.1026 11.0756 14.0289 10.931 13.9529L8.01594 12.4197C8.01049 12.4168 8.00515 12.4134 8.00032 12.4109C7.99535 12.4135 7.99032 12.4167 7.98469 12.4197L5.06965 13.9529C4.92481 14.0291 4.7854 14.1025 4.66828 14.1511C4.55875 14.1966 4.37756 14.2606 4.17121 14.2224C3.9241 14.1766 3.71014 14.0223 3.59016 13.8015C3.49005 13.6172 3.49586 13.4247 3.5052 13.3064C3.51521 13.18 3.54199 13.0243 3.56965 12.863L4.12629 9.61792C4.12736 9.61169 4.12828 9.60584 4.12922 9.60034C4.1254 9.59662 4.12083 9.59281 4.11653 9.58862L1.75813 7.29175C1.64097 7.17764 1.52802 7.06774 1.44563 6.97144C1.36855 6.88135 1.25053 6.72922 1.22297 6.52124C1.19007 6.27211 1.27182 6.02105 1.44465 5.83862C1.58903 5.68629 1.77369 5.63197 1.88899 5.60425C2.01211 5.57465 2.16775 5.55268 2.32942 5.52905L5.59016 5.05249C5.59624 5.0516 5.60235 5.05035 5.60774 5.04956C5.61017 5.04465 5.61281 5.03948 5.61555 5.03394L7.07356 2.08081C7.14597 1.9341 7.21538 1.79244 7.28157 1.68433C7.34349 1.5832 7.45167 1.4241 7.64094 1.33374L7.72786 1.29858ZM7.97004 2.52319L6.51203 5.47632C6.48018 5.54086 6.424 5.66749 6.32942 5.76929C6.25605 5.84826 6.1674 5.91231 6.06965 5.95776C5.94375 6.01621 5.80583 6.03135 5.73469 6.04175L2.47395 6.51831C2.45159 6.52158 2.4305 6.52512 2.41047 6.52808C2.42518 6.54244 2.4399 6.55891 2.45637 6.57495L4.81477 8.8728C4.85354 8.91054 4.9211 8.97191 4.98078 9.05151L5.03645 9.13745L5.07258 9.20972C5.0941 9.25908 5.11078 9.31045 5.12239 9.36304L5.13606 9.44214L5.14094 9.54468C5.13948 9.64421 5.1208 9.73357 5.11164 9.78687L4.55598 13.032C4.55217 13.0542 4.54863 13.0755 4.54524 13.0955C4.56337 13.086 4.58357 13.0778 4.60383 13.0671L7.51887 11.5339C7.58259 11.5004 7.70282 11.4319 7.83918 11.405C7.91858 11.3895 8.00014 11.3855 8.08039 11.3933L8.16047 11.405L8.25911 11.4324C8.35327 11.4645 8.43295 11.5088 8.48078 11.5339L11.3958 13.0671C11.4161 13.0778 11.4362 13.0869 11.4544 13.0964C11.451 13.0763 11.4485 13.0545 11.4447 13.032L10.888 9.78687C10.8758 9.71572 10.8479 9.58004 10.8646 9.44214L10.8782 9.36304C10.8956 9.28429 10.9239 9.20817 10.9632 9.13745L11.0198 9.05151C11.0796 8.97184 11.1472 8.91046 11.1859 8.8728L13.5443 6.57495C13.5606 6.55901 13.5746 6.54236 13.5892 6.52808C13.5692 6.52512 13.5481 6.52158 13.5257 6.51831L10.265 6.04175C10.1938 6.03134 10.056 6.01632 9.93 5.95776C9.83239 5.91237 9.74453 5.84811 9.67121 5.76929C9.57662 5.66748 9.51947 5.54085 9.48762 5.47632L8.02961 2.52319C8.01947 2.50265 8.00843 2.48394 7.99934 2.46558C7.99031 2.4838 7.9801 2.50282 7.97004 2.52319Z" fill="currentColor"/>
</svg>
