<svg width="16" height="16" viewBox="0 0 16 16" fill="none" xmlns="http://www.w3.org/2000/svg">
<path d="M7.52144 2.30205C7.6751 1.99076 7.75193 1.83511 7.85623 1.78538C7.94697 1.74211 8.0524 1.74211 8.14314 1.78538C8.24744 1.83511 8.32427 1.99076 8.47793 2.30205L9.93571 5.25536C9.98108 5.34726 10.0038 5.39321 10.0369 5.42889C10.0663 5.46048 10.1015 5.48607 10.1406 5.50425C10.1847 5.52479 10.2354 5.5322 10.3368 5.54702L13.5977 6.02364C13.9411 6.07383 14.1127 6.09893 14.1922 6.1828C14.2613 6.25577 14.2938 6.35603 14.2807 6.45569C14.2656 6.57022 14.1413 6.69129 13.8927 6.93342L11.534 9.23078C11.4604 9.3024 11.4237 9.33821 11.4 9.38081C11.379 9.41854 11.3655 9.45998 11.3603 9.50284C11.3544 9.55125 11.3631 9.60183 11.3804 9.703L11.937 12.9479C11.9957 13.2902 12.025 13.4613 11.9699 13.5628C11.9219 13.6512 11.8366 13.7132 11.7377 13.7315C11.6241 13.7525 11.4704 13.6717 11.1631 13.5101L8.24793 11.9771C8.1571 11.9293 8.11168 11.9054 8.06384 11.896C8.02147 11.8877 7.9779 11.8877 7.93554 11.896C7.88769 11.9054 7.84227 11.9293 7.75145 11.9771L4.83629 13.5101C4.52895 13.6717 4.37528 13.7525 4.26166 13.7315C4.1628 13.7132 4.07749 13.6512 4.0295 13.5628C3.97434 13.4613 4.00369 13.2902 4.06239 12.9479L4.61893 9.703C4.63628 9.60183 4.64496 9.55125 4.63909 9.50284C4.63389 9.45998 4.62042 9.41854 4.59941 9.38081C4.57569 9.33821 4.53893 9.3024 4.4654 9.23078L2.10671 6.93342C1.85812 6.69129 1.73382 6.57022 1.71869 6.45569C1.70553 6.35603 1.73804 6.25577 1.80717 6.1828C1.88663 6.09893 2.05832 6.07383 2.4017 6.02364L5.66255 5.54702C5.76396 5.5322 5.81466 5.52479 5.85882 5.50425C5.89792 5.48607 5.93312 5.46048 5.96246 5.42889C5.99561 5.39321 6.01829 5.34726 6.06366 5.25536L7.52144 2.30205Z" stroke="currentColor" stroke-linecap="round" stroke-linejoin="round"/>
</svg>
