<svg width="16" height="16" viewBox="0 0 16 16" fill="none" xmlns="http://www.w3.org/2000/svg">
<g clip-path="url(#clip0_65_1116)">
<path d="M9.38864 0.83304C9.08632 0.833041 8.85325 0.829953 8.62887 0.883822C8.44195 0.92873 8.2635 1.00311 8.09958 1.10355C7.90283 1.22412 7.74011 1.39075 7.52633 1.60452L2.41403 6.71683C2.02392 7.10694 1.70935 7.42013 1.47653 7.69437C1.23991 7.9731 1.05873 8.24449 0.956022 8.56058C0.792877 9.06269 0.792877 9.60339 0.956022 10.1055C1.05873 10.4216 1.23991 10.693 1.47653 10.9717C1.70935 11.2459 2.02392 11.5591 2.41403 11.9493L3.88864 13.4239C4.27874 13.814 4.59194 14.1285 4.86618 14.3614C5.14491 14.598 5.4163 14.7792 5.73239 14.8819C6.2345 15.045 6.7752 15.045 7.27731 14.8819C7.5934 14.7792 7.86479 14.598 8.14352 14.3614C8.41776 14.1285 8.73095 13.814 9.12106 13.4239L14.2334 8.31156C14.4471 8.09778 14.6138 7.93506 14.7343 7.73831C14.8348 7.57439 14.9092 7.39594 14.9541 7.20902C15.0079 6.98464 15.0049 6.75157 15.0049 6.44925V4.54984C15.0049 4.24775 15.0078 4.01528 14.9541 3.79105C14.9092 3.60398 14.8349 3.42481 14.7343 3.26077C14.6138 3.06408 14.4471 2.90126 14.2334 2.68753L13.1504 1.60452C12.9366 1.3908 12.7738 1.22411 12.5771 1.10355C12.4131 1.00303 12.2339 0.928732 12.0468 0.883822C11.8226 0.830045 11.5901 0.833039 11.2881 0.83304H9.38864ZM10.4199 4.50394C9.99956 4.5465 9.67184 4.90148 9.67184 5.33304C9.67184 5.79328 10.0446 6.16605 10.5049 6.16605C10.9364 6.16605 11.2914 5.83833 11.334 5.418L11.3379 5.33304L11.334 5.24808C11.2914 4.82775 10.9364 4.50003 10.5049 4.50003L10.4199 4.50394ZM14.0049 6.44925C14.0049 6.79917 14.0012 6.8931 13.9814 6.97562C13.961 7.06046 13.9274 7.14144 13.8818 7.21585C13.8375 7.28821 13.7738 7.35709 13.5263 7.60452L8.41403 12.7168C8.01228 13.1186 7.73193 13.3984 7.49606 13.5987C7.26471 13.7951 7.10923 13.886 6.96872 13.9317C6.66745 14.0296 6.34225 14.0296 6.04098 13.9317C5.90048 13.886 5.74499 13.7951 5.51364 13.5987C5.27777 13.3984 4.99742 13.1186 4.59567 12.7168L3.12106 11.2422C2.71931 10.8405 2.43948 10.5601 2.23923 10.3243C2.04283 10.0929 1.9519 9.93741 1.90622 9.79691C1.80833 9.49564 1.80833 9.17044 1.90622 8.86917C1.9519 8.72866 2.04282 8.57318 2.23923 8.34183C2.43948 8.10596 2.71931 7.82561 3.12106 7.42386L8.23337 2.31156C8.4808 2.06413 8.54968 2.00043 8.62204 1.95609C8.69645 1.91051 8.77743 1.87689 8.86227 1.85648C8.94479 1.83667 9.03872 1.83304 9.38864 1.83304H11.2881C11.6375 1.83304 11.731 1.83672 11.8134 1.85648C11.8985 1.87689 11.9801 1.9104 12.0547 1.95609C12.127 2.00042 12.1952 2.06439 12.4424 2.31156L13.5263 3.39554C13.7735 3.64271 13.8375 3.71093 13.8818 3.78324C13.9275 3.8578 13.961 3.93942 13.9814 4.02445C14.0012 4.1069 14.0048 4.20038 14.0049 4.54984V6.44925Z" fill="currentColor"/>
</g>
<defs>
<clipPath id="clip0_65_1116">
<rect width="16" height="16" fill="white"/>
</clipPath>
</defs>
</svg>
