<svg width="16" height="16" viewBox="0 0 16 16" fill="none" xmlns="http://www.w3.org/2000/svg">
<g clip-path="url(#clip0_65_1116)">
<path d="M10.5049 5.3335H10.4982M12.7964 1.95833L13.88 3.04199C14.1106 3.27259 14.2259 3.38789 14.3084 3.52245C14.3815 3.64175 14.4354 3.77181 14.468 3.90785C14.5049 4.0613 14.5049 4.22436 14.5049 4.55048L14.5049 6.44984C14.5049 6.77596 14.5049 6.93902 14.468 7.09247C14.4354 7.22852 14.3815 7.35858 14.3084 7.47788C14.2259 7.61243 14.1106 7.72773 13.88 7.95833L8.76763 13.0708C7.97559 13.8628 7.57958 14.2588 7.12292 14.4072C6.72123 14.5377 6.28854 14.5377 5.88685 14.4072C5.43019 14.2588 5.03418 13.8628 4.24214 13.0707L2.76763 11.5962C1.97559 10.8042 1.57958 10.4082 1.4312 9.95153C1.30068 9.54984 1.30068 9.11715 1.4312 8.71546C1.57958 8.2588 1.97559 7.86279 2.76763 7.07075L7.88005 1.95834C8.11065 1.72773 8.22595 1.61243 8.3605 1.52998C8.4798 1.45687 8.60986 1.403 8.74591 1.37034C8.89936 1.3335 9.06242 1.3335 9.38854 1.3335L11.2879 1.3335C11.614 1.3335 11.7771 1.3335 11.9305 1.37034C12.0666 1.403 12.1966 1.45687 12.3159 1.52998C12.4505 1.61243 12.5658 1.72773 12.7964 1.95833ZM10.1715 5.3335C10.1715 5.51759 10.3208 5.66683 10.5049 5.66683C10.689 5.66683 10.8382 5.51759 10.8382 5.3335C10.8382 5.1494 10.689 5.00016 10.5049 5.00016C10.3208 5.00016 10.1715 5.1494 10.1715 5.3335Z" stroke="currentColor" stroke-linecap="round" stroke-linejoin="round"/>
</g>
<defs>
<clipPath id="clip0_65_1116">
<rect width="16" height="16" fill="white"/>
</clipPath>
</defs>
</svg>
