<svg width="16" height="16" viewBox="0 0 16 16" fill="none" xmlns="http://www.w3.org/2000/svg">
<g clip-path="url(#clip0_603_12380)">
<path d="M5.33301 5.3335H5.33968M1.33301 3.46683L1.33301 6.44984C1.33301 6.77596 1.33301 6.93902 1.36985 7.09247C1.40251 7.22852 1.45638 7.35858 1.52949 7.47787C1.61194 7.61243 1.72724 7.72773 1.95785 7.95833L7.07027 13.0708C7.8623 13.8628 8.25832 14.2588 8.71497 14.4072C9.11666 14.5377 9.54935 14.5377 9.95104 14.4072C10.4077 14.2588 10.8037 13.8628 11.5958 13.0707L13.0703 11.5962C13.8623 10.8042 14.2583 10.4082 14.4067 9.95153C14.5372 9.54984 14.5372 9.11715 14.4067 8.71546C14.2583 8.2588 13.8623 7.86279 13.0703 7.07075L7.95784 1.95833C7.72724 1.72773 7.61194 1.61243 7.47739 1.52998C7.35809 1.45687 7.22803 1.403 7.09198 1.37034C6.93853 1.3335 6.77547 1.3335 6.44935 1.3335L3.46634 1.3335C2.7196 1.3335 2.34624 1.3335 2.06102 1.47882C1.81014 1.60665 1.60616 1.81063 1.47833 2.06151C1.33301 2.34672 1.33301 2.72009 1.33301 3.46683ZM5.66634 5.3335C5.66634 5.51759 5.5171 5.66683 5.33301 5.66683C5.14891 5.66683 4.99968 5.51759 4.99968 5.3335C4.99968 5.1494 5.14891 5.00016 5.33301 5.00016C5.5171 5.00016 5.66634 5.1494 5.66634 5.3335Z" stroke="currentColor" stroke-linecap="round" stroke-linejoin="round"/>
</g>
<defs>
<clipPath id="clip0_603_12380">
<rect width="16" height="16" fill="white"/>
</clipPath>
</defs>
</svg>
