<svg width="16" height="16" viewBox="0 0 16 16" fill="none" xmlns="http://www.w3.org/2000/svg">
<g clip-path="url(#clip0_63_3597)">
<path d="M7.5 14.667V13.8105C4.67731 13.571 2.4293 11.3236 2.18945 8.50098H1.33301C1.05697 8.50098 0.833184 8.27697 0.833008 8.00098C0.833008 7.72483 1.05687 7.50098 1.33301 7.50098H2.18848C2.428 4.67799 4.67702 2.42898 7.5 2.18945V1.33398C7.5 1.05784 7.72386 0.833984 8 0.833984C8.27599 0.834161 8.5 1.05795 8.5 1.33398V2.18945C11.3227 2.42927 13.571 4.67822 13.8105 7.50098H14.666C14.9422 7.50098 15.166 7.72483 15.166 8.00098C15.1658 8.27697 14.942 8.50098 14.666 8.50098H13.8096C13.5697 11.3234 11.3224 13.5707 8.5 13.8105V14.667C8.5 14.943 8.27599 15.1668 8 15.167C7.72386 15.167 7.5 14.9431 7.5 14.667ZM7.5 4.00098V3.19238C5.22966 3.42554 3.42558 5.23065 3.19238 7.50098H4C4.27599 7.50115 4.5 7.72494 4.5 8.00098C4.49982 8.27686 4.27588 8.5008 4 8.50098H3.19238C3.42586 10.771 5.22993 12.5744 7.5 12.8076V12.001C7.5 11.7248 7.72386 11.501 8 11.501C8.27599 11.5012 8.5 11.7249 8.5 12.001V12.8076C10.7698 12.5742 12.5732 10.7707 12.8066 8.50098H12C11.724 8.50098 11.5002 8.27697 11.5 8.00098C11.5 7.72483 11.7239 7.50098 12 7.50098H12.8066C12.5734 5.23088 10.77 3.42581 8.5 3.19238V4.00098C8.49982 4.27686 8.27588 4.5008 8 4.50098C7.72397 4.50098 7.50018 4.27697 7.5 4.00098Z" fill="currentColor"/>
</g>
<defs>
<clipPath id="clip0_63_3597">
<rect width="16" height="16" fill="white"/>
</clipPath>
</defs>
</svg>
