<svg width="16" height="16" viewBox="0 0 16 16" fill="none" xmlns="http://www.w3.org/2000/svg">
<path d="M12.834 14C12.834 13.0333 12.8281 12.6608 12.7403 12.3711C12.5302 11.6786 11.9884 11.1368 11.2959 10.9268C11.0063 10.8389 10.6338 10.833 9.66701 10.833H6.33401C5.36759 10.833 4.99472 10.839 4.7051 10.9268C4.01266 11.1368 3.47084 11.6787 3.26076 12.3711C3.17289 12.6608 3.16701 13.0332 3.16701 14C3.16701 14.2761 2.94316 14.5 2.66701 14.5C2.39087 14.5 2.16701 14.2761 2.16701 14C2.16701 13.1061 2.162 12.5484 2.30373 12.0811C2.61071 11.0691 3.40218 10.2768 4.41408 9.96973C4.88148 9.82794 5.44001 9.83301 6.33401 9.83301H9.66701C10.5608 9.83301 11.1186 9.82802 11.586 9.96973C12.598 10.2767 13.3903 11.069 13.6973 12.0811C13.839 12.5484 13.834 13.1062 13.834 14C13.834 14.276 13.61 14.4998 13.334 14.5C13.0579 14.5 12.834 14.2761 12.834 14ZM10.5 5C10.5 3.61929 9.38073 2.5 8.00002 2.5C6.61946 2.50018 5.50002 3.6194 5.50002 5C5.50002 6.3806 6.61946 7.49982 8.00002 7.5C9.38073 7.5 10.5 6.38071 10.5 5ZM11.5 5C11.5 6.933 9.93302 8.5 8.00002 8.5C6.06717 8.49982 4.50002 6.93289 4.50002 5C4.50002 3.06711 6.06717 1.50018 8.00002 1.5C9.93302 1.5 11.5 3.067 11.5 5Z" fill="currentColor"/>
</svg>
