<svg width="20" height="20" viewBox="0 0 20 20" fill="none" xmlns="http://www.w3.org/2000/svg">
<path d="M3.33368 18.181C3.83583 18.3332 4.51407 18.3332 5.66699 18.3332H14.3337C15.4866 18.3332 16.1648 18.3332 16.667 18.181M3.33368 18.181C3.22601 18.1484 3.12644 18.1088 3.03202 18.0607C2.56161 17.821 2.17916 17.4386 1.93948 16.9681C1.66699 16.4334 1.66699 15.7333 1.66699 14.3332V5.6665C1.66699 4.26637 1.66699 3.56631 1.93948 3.03153C2.17916 2.56112 2.56161 2.17867 3.03202 1.93899C3.5668 1.6665 4.26686 1.6665 5.66699 1.6665H14.3337C15.7338 1.6665 16.4339 1.6665 16.9686 1.93899C17.439 2.17867 17.8215 2.56112 18.0612 3.03153C18.3337 3.56631 18.3337 4.26637 18.3337 5.6665V14.3332C18.3337 15.7333 18.3337 16.4334 18.0612 16.9681C17.8215 17.4386 17.439 17.821 16.9686 18.0607C16.8742 18.1088 16.7746 18.1484 16.667 18.181M3.33368 18.181C3.33395 17.5066 3.338 17.1497 3.39771 16.8495C3.66073 15.5272 4.69439 14.4936 6.01669 14.2306C6.33869 14.1665 6.7259 14.1665 7.50033 14.1665H12.5003C13.2748 14.1665 13.662 14.1665 13.984 14.2306C15.3063 14.4936 16.3399 15.5272 16.6029 16.8495C16.6627 17.1497 16.6667 17.5066 16.667 18.181M13.3337 7.9165C13.3337 9.75745 11.8413 11.2498 10.0003 11.2498C8.15938 11.2498 6.66699 9.75745 6.66699 7.9165C6.66699 6.07555 8.15938 4.58317 10.0003 4.58317C11.8413 4.58317 13.3337 6.07555 13.3337 7.9165Z" stroke="currentColor" stroke-linecap="round" stroke-linejoin="round"/>
</svg>
