<svg width="20" height="20" viewBox="0 0 20 20" fill="none" xmlns="http://www.w3.org/2000/svg">
<path d="M10.0003 12.9167H6.25033C5.08736 12.9167 4.50587 12.9167 4.03271 13.0602C2.96737 13.3834 2.13369 14.217 1.81053 15.2824C1.66699 15.7555 1.66699 16.337 1.66699 17.5M12.0837 6.25C12.0837 8.32107 10.4047 10 8.33366 10C6.26259 10 4.58366 8.32107 4.58366 6.25C4.58366 4.17893 6.26259 2.5 8.33366 2.5C10.4047 2.5 12.0837 4.17893 12.0837 6.25Z" stroke="currentColor" stroke-linecap="round" stroke-linejoin="round"/>
<path d="M14.077 17.1147L14.2921 17.5986C14.3561 17.7426 14.4605 17.865 14.5926 17.9509C14.7248 18.0368 14.879 18.0825 15.0366 18.0825C15.1942 18.0825 15.3484 18.0368 15.4806 17.9509C15.6127 17.865 15.7171 17.7426 15.781 17.5986L15.9962 17.1147C16.0728 16.943 16.2016 16.7998 16.3643 16.7056C16.5281 16.6112 16.7175 16.5709 16.9055 16.5907L17.4319 16.6467C17.5886 16.6633 17.7468 16.6341 17.8872 16.5625C18.0276 16.491 18.1443 16.3803 18.223 16.2438C18.3019 16.1074 18.3394 15.9511 18.3311 15.7937C18.3229 15.6364 18.2691 15.4848 18.1764 15.3574L17.8647 14.9292C17.7537 14.7755 17.6944 14.5906 17.6953 14.4011C17.6953 14.2121 17.7552 14.0279 17.8663 13.8751L18.178 13.4468C18.2707 13.3194 18.3245 13.1679 18.3328 13.0105C18.3411 12.8532 18.3035 12.6968 18.2246 12.5604C18.1459 12.4239 18.0292 12.3132 17.8888 12.2417C17.7484 12.1702 17.5903 12.1409 17.4336 12.1575L16.9071 12.2135C16.7191 12.2333 16.5297 12.1931 16.366 12.0986C16.2029 12.0039 16.0741 11.86 15.9978 11.6875L15.781 11.2036C15.7171 11.0596 15.6127 10.9372 15.4806 10.8513C15.3484 10.7654 15.1942 10.7197 15.0366 10.7197C14.879 10.7197 14.7248 10.7654 14.5926 10.8513C14.4605 10.9372 14.3561 11.0596 14.2921 11.2036L14.077 11.6875C14.0007 11.86 13.8719 12.0039 13.7088 12.0986C13.5451 12.1931 13.3557 12.2333 13.1677 12.2135L12.6396 12.1575C12.4829 12.1409 12.3247 12.1702 12.1843 12.2417C12.0439 12.3132 11.9273 12.4239 11.8485 12.5604C11.7697 12.6968 11.7321 12.8532 11.7404 13.0105C11.7487 13.1679 11.8024 13.3194 11.8951 13.4468L12.2068 13.8751C12.318 14.0279 12.3778 14.2121 12.3778 14.4011C12.3778 14.5901 12.318 14.7743 12.2068 14.9271L11.8951 15.3554C11.8024 15.4828 11.7487 15.6343 11.7404 15.7917C11.7321 15.949 11.7697 16.1054 11.8485 16.2418C11.9273 16.3782 12.044 16.4889 12.1844 16.5604C12.3248 16.6319 12.4829 16.6612 12.6396 16.6447L13.166 16.5886C13.354 16.5689 13.5435 16.6091 13.7072 16.7036C13.8708 16.798 14.0003 16.942 14.077 17.1147Z" stroke="currentColor" stroke-width="0.8" stroke-linecap="round" stroke-linejoin="round"/>
<path d="M15.0359 15.5055C15.6459 15.5055 16.1403 15.011 16.1403 14.4011C16.1403 13.7911 15.6459 13.2967 15.0359 13.2967C14.426 13.2967 13.9315 13.7911 13.9315 14.4011C13.9315 15.011 14.426 15.5055 15.0359 15.5055Z" stroke="currentColor" stroke-width="0.8" stroke-linecap="round" stroke-linejoin="round"/>
</svg>
