<svg width="20" height="20" viewBox="0 0 20 20" fill="none" xmlns="http://www.w3.org/2000/svg">
<path d="M7.50045 18.1667V12.8333C7.50045 12.3666 7.50045 12.1333 7.59128 11.955C7.67117 11.7982 7.79866 11.6707 7.95546 11.5908C8.13372 11.5 8.36708 11.5 8.83379 11.5H11.1671C11.6338 11.5 11.8672 11.5 12.0454 11.5908C12.2022 11.6707 12.3297 11.7982 12.4096 11.955C12.5005 12.1333 12.5005 12.3666 12.5005 12.8333V18.1667M9.56486 1.11359C9.85011 1.03636 10.1508 1.03636 10.436 1.11359C10.7672 1.20325 11.0459 1.42213 11.2685 1.59682L11.3306 1.6455L17.0473 6.09172C17.3612 6.33529 17.6377 6.54988 17.8437 6.82847C18.0246 7.07295 18.1593 7.34838 18.2412 7.64121C18.3346 7.97489 18.3343 8.3249 18.3338 8.72219L18.3338 14.8654C18.3338 15.3047 18.3338 15.6837 18.3083 15.9958C18.2814 16.3253 18.222 16.6529 18.0613 16.9683C17.8216 17.4387 17.4392 17.8211 16.9688 18.0608C16.6534 18.2215 16.3258 18.2809 15.9963 18.3078C15.6842 18.3333 15.3052 18.3333 14.8659 18.3333H5.13497C4.69569 18.3333 4.31672 18.3333 4.00459 18.3078C3.67513 18.2809 3.34745 18.2215 3.03213 18.0608C2.56173 17.8211 2.17928 17.4387 1.93959 16.9683C1.77893 16.6529 1.7195 16.3253 1.69258 15.9958C1.66708 15.6837 1.66709 15.3047 1.66711 14.8654L1.66705 8.72218C1.66662 8.3249 1.66624 7.97489 1.75964 7.64121C1.84161 7.34838 1.97632 7.07295 2.15714 6.82847C2.36319 6.54988 2.6397 6.3353 2.95356 6.09173L8.67024 1.6455L8.73243 1.59682C8.95494 1.42213 9.23373 1.20325 9.56486 1.11359Z" stroke="currentColor" stroke-linecap="round" stroke-linejoin="round"/>
</svg>
