<svg width="20" height="20" viewBox="0 0 20 20" fill="none" xmlns="http://www.w3.org/2000/svg">
<path d="M4.16699 4.15809C4.16699 3.34879 4.16699 2.94414 4.33573 2.72108C4.48274 2.52675 4.70743 2.4065 4.95066 2.39198C5.22986 2.37531 5.56655 2.59977 6.23993 3.04869L15.0029 8.89067C15.5593 9.2616 15.8375 9.44707 15.9344 9.68084C16.0192 9.88522 16.0192 10.1149 15.9344 10.3193C15.8375 10.5531 15.5593 10.7385 15.0029 11.1095L6.23992 16.9514C5.56655 17.4004 5.22986 17.6248 4.95066 17.6082C4.70743 17.5936 4.48274 17.4734 4.33573 17.2791C4.16699 17.056 4.16699 16.6513 4.16699 15.842V4.15809Z" stroke="currentColor" stroke-linecap="round" stroke-linejoin="round"/>
</svg>
