<svg width="16" height="16" viewBox="0 0 16 16" fill="none" xmlns="http://www.w3.org/2000/svg">
<path d="M7.99996 9.49996C8.13242 9.49996 8.25974 9.55288 8.35348 9.64645L11.6875 12.9804C11.8824 13.1757 11.8826 13.4923 11.6875 13.6875C11.4923 13.8826 11.1757 13.8824 10.9804 13.6875L7.99996 10.707L5.02047 13.6875C4.82525 13.8825 4.50866 13.8825 4.31344 13.6875C4.11823 13.4923 4.11834 13.1757 4.31344 12.9804L7.64645 9.64645C7.74014 9.55276 7.86747 9.50005 7.99996 9.49996ZM10.9804 2.31344C11.1757 2.11834 11.4923 2.11823 11.6875 2.31344C11.8825 2.50866 11.8825 2.82525 11.6875 3.02047L8.35348 6.35348C8.25971 6.44725 8.13257 6.49996 7.99996 6.49996C7.86747 6.49988 7.74014 6.44717 7.64645 6.35348L4.31344 3.02047C4.11818 2.82521 4.11818 2.5087 4.31344 2.31344C4.5087 2.11818 4.82521 2.11818 5.02047 2.31344L7.99996 5.29293L10.9804 2.31344Z" fill="currentColor"/>
</svg>
