<svg width="16" height="16" viewBox="0 0 16 16" fill="none" xmlns="http://www.w3.org/2000/svg">
<path d="M10.9803 9.64648C11.1756 9.45155 11.4922 9.45133 11.6874 9.64648C11.8825 9.84164 11.8823 10.1582 11.6874 10.3535L8.3534 13.6875C8.25966 13.7811 8.13234 13.834 7.99988 13.834C7.86739 13.8339 7.74006 13.7812 7.64637 13.6875L4.31336 10.3535C4.11826 10.1582 4.11815 9.84169 4.31336 9.64648C4.50858 9.45144 4.82517 9.45144 5.02039 9.64648L7.99988 12.626L10.9803 9.64648ZM7.99988 2.16699C8.13241 2.16699 8.25964 2.21981 8.3534 2.31348L11.6874 5.64648C11.8825 5.84164 11.8823 6.15823 11.6874 6.35352C11.4921 6.54878 11.1756 6.54878 10.9803 6.35352L7.99988 3.37305L5.02039 6.35352C4.82513 6.54878 4.50862 6.54878 4.31336 6.35352C4.11826 6.15824 4.11815 5.84169 4.31336 5.64648L7.64637 2.31348C7.74006 2.21979 7.86739 2.16708 7.99988 2.16699Z" fill="currentColor"/>
</svg>
