<svg width="16" height="16" viewBox="0 0 16 16" fill="none" xmlns="http://www.w3.org/2000/svg">
<path d="M12.5 13V3C12.5 2.72386 12.7238 2.5 13 2.5C13.2761 2.50004 13.5 2.72388 13.5 3V13C13.5 13.2761 13.2761 13.5 13 13.5C12.7238 13.5 12.5 13.2761 12.5 13ZM5.64645 3.64648C5.84171 3.45122 6.15822 3.45122 6.35348 3.64648L10.3535 7.64648C10.5487 7.84175 10.5487 8.15825 10.3535 8.35352L6.35348 12.3535C6.15822 12.5488 5.84171 12.5488 5.64645 12.3535C5.45118 12.1583 5.45118 11.8417 5.64645 11.6465L9.29293 8L5.64645 4.35352C5.45118 4.15825 5.45118 3.84175 5.64645 3.64648Z" fill="currentColor"/>
</svg>
