<svg width="16" height="16" viewBox="0 0 16 16" fill="none" xmlns="http://www.w3.org/2000/svg">
<path d="M13.5 5.2002C13.5 4.63189 13.4998 4.23518 13.4746 3.92676C13.4499 3.62471 13.4039 3.45091 13.3369 3.31934C13.1931 3.03709 12.9629 2.8069 12.6807 2.66309C12.5491 2.59613 12.3753 2.55009 12.0732 2.52539C11.7648 2.50019 11.3681 2.5 10.7998 2.5H6.5V13.5H10.7998C11.3681 13.5 11.7648 13.4998 12.0732 13.4746C12.3753 13.4499 12.5491 13.4039 12.6807 13.3369C12.9629 13.1931 13.1931 12.9629 13.3369 12.6807C13.4039 12.5491 13.4499 12.3753 13.4746 12.0732C13.4998 11.7648 13.5 11.3681 13.5 10.7998V5.2002ZM2.5 10.7998C2.5 11.3681 2.50019 11.7648 2.52539 12.0732C2.55009 12.3753 2.59613 12.5491 2.66309 12.6807C2.8069 12.9629 3.03709 13.1931 3.31934 13.3369C3.45091 13.4039 3.62471 13.4499 3.92676 13.4746C4.23518 13.4998 4.63189 13.5 5.2002 13.5H5.5V2.5H5.2002C4.63189 2.5 4.23518 2.50019 3.92676 2.52539C3.62471 2.55009 3.45091 2.59613 3.31934 2.66309C3.03709 2.8069 2.8069 3.03709 2.66309 3.31934C2.59613 3.45091 2.55009 3.62471 2.52539 3.92676C2.50019 4.23518 2.5 4.63189 2.5 5.2002V10.7998ZM14.5 10.7998C14.5 11.3516 14.5 11.7957 14.4707 12.1543C14.4409 12.5186 14.3784 12.8387 14.2275 13.1348C13.9879 13.6052 13.6052 13.9879 13.1348 14.2275C12.8387 14.3784 12.5186 14.4409 12.1543 14.4707C11.7957 14.5 11.3516 14.5 10.7998 14.5H5.2002C4.64839 14.5 4.20429 14.5 3.8457 14.4707C3.48136 14.4409 3.16133 14.3784 2.86523 14.2275C2.39483 13.9879 2.01214 13.6052 1.77246 13.1348C1.62163 12.8387 1.55907 12.5186 1.5293 12.1543C1.5 11.7957 1.5 11.3516 1.5 10.7998V5.2002C1.5 4.64839 1.5 4.20429 1.5293 3.8457C1.55907 3.48136 1.62163 3.16133 1.77246 2.86523C2.01214 2.39483 2.39483 2.01214 2.86523 1.77246C3.16133 1.62163 3.48136 1.55907 3.8457 1.5293C4.20429 1.5 4.64839 1.5 5.2002 1.5H10.7998C11.3516 1.5 11.7957 1.5 12.1543 1.5293C12.5186 1.55907 12.8387 1.62163 13.1348 1.77246C13.6052 2.01214 13.9879 2.39483 14.2275 2.86523C14.3784 3.16133 14.4409 3.48136 14.4707 3.8457C14.5 4.20429 14.5 4.64839 14.5 5.2002V10.7998Z" fill="currentColor"/>
</svg>
