<svg width="16" height="16" viewBox="0 0 16 16" fill="none" xmlns="http://www.w3.org/2000/svg">
<path d="M13.25 5.2002C13.25 4.62777 13.2498 4.24315 13.2256 3.94727C13.2021 3.66027 13.1594 3.52316 13.1133 3.43262C12.9935 3.1975 12.8025 3.00655 12.5674 2.88672C12.4768 2.84059 12.3397 2.79788 12.0527 2.77442C11.7569 2.75024 11.3722 2.75 10.7998 2.75H6.75V13.25H10.7998C11.3722 13.25 11.7569 13.2498 12.0527 13.2256C12.3397 13.2021 12.4768 13.1594 12.5674 13.1133C12.8025 12.9935 12.9935 12.8025 13.1133 12.5674C13.1594 12.4768 13.2021 12.3397 13.2256 12.0527C13.2498 11.7569 13.25 11.3722 13.25 10.7998V5.2002ZM2.75 10.7998C2.75 11.3722 2.75024 11.7569 2.77442 12.0527C2.79788 12.3397 2.84059 12.4768 2.88672 12.5674C3.00655 12.8025 3.1975 12.9935 3.43262 13.1133C3.52316 13.1594 3.66027 13.2021 3.94727 13.2256C4.24315 13.2498 4.62777 13.25 5.2002 13.25H5.25V2.75H5.2002C4.62777 2.75 4.24315 2.75024 3.94727 2.77442C3.66027 2.79788 3.52316 2.84059 3.43262 2.88672C3.19751 3.00655 3.00655 3.19751 2.88672 3.43262C2.84059 3.52316 2.79788 3.66027 2.77442 3.94727C2.75024 4.24315 2.75 4.62777 2.75 5.2002V10.7998ZM14.75 10.7998C14.75 11.3475 14.751 11.8037 14.7207 12.1748C14.6897 12.5545 14.6219 12.9109 14.4502 13.2481C14.1865 13.7655 13.7655 14.1865 13.2481 14.4502C12.9109 14.6219 12.5545 14.6897 12.1748 14.7207C11.8037 14.751 11.3475 14.75 10.7998 14.75H5.2002C4.65252 14.75 4.19633 14.751 3.8252 14.7207C3.44547 14.6897 3.0891 14.6219 2.75196 14.4502C2.23451 14.1865 1.81346 13.7655 1.54981 13.2481C1.3781 12.9109 1.31033 12.5545 1.2793 12.1748C1.24898 11.8037 1.25 11.3475 1.25 10.7998V5.2002C1.25 4.65252 1.24898 4.19633 1.2793 3.8252C1.31033 3.44547 1.3781 3.0891 1.54981 2.75196C1.81346 2.23451 2.23451 1.81346 2.75196 1.54981C3.0891 1.3781 3.44547 1.31033 3.8252 1.2793C4.19633 1.24898 4.65252 1.25 5.2002 1.25H10.7998C11.3475 1.25 11.8037 1.24898 12.1748 1.2793C12.5545 1.31033 12.9109 1.3781 13.2481 1.54981C13.7655 1.81346 14.1865 2.23451 14.4502 2.75196C14.6219 3.0891 14.6897 3.44547 14.7207 3.8252C14.751 4.19633 14.75 4.65252 14.75 5.2002V10.7998Z" fill="#FCFCFC"/>
<path d="M3 2H6V14H3L2 12V4L3 2Z" fill="#FCFCFC"/>
</svg>
