<svg width="16" height="16" viewBox="0 0 16 16" fill="none" xmlns="http://www.w3.org/2000/svg">
<path d="M14 13.5C14.2761 13.5 14.5 13.7239 14.5 14C14.5 14.2761 14.2761 14.5 14 14.5H2C1.72386 14.5 1.5 14.2761 1.5 14C1.5 13.7239 1.72386 13.5 2 13.5H14ZM7.5 11.333V3.20703L4.35352 6.35352C4.15825 6.54878 3.84175 6.54878 3.64648 6.35352C3.45122 6.15825 3.45122 5.84175 3.64648 5.64648L7.64648 1.64648L7.72266 1.58398C7.80419 1.52963 7.90056 1.5 8 1.5C8.13261 1.5 8.25975 1.55272 8.35352 1.64648L12.3535 5.64648C12.5488 5.84175 12.5488 6.15825 12.3535 6.35352C12.1583 6.54878 11.8417 6.54878 11.6465 6.35352L8.5 3.20703V11.333C8.5 11.6091 8.27614 11.833 8 11.833C7.72386 11.833 7.5 11.6091 7.5 11.333Z" fill="currentColor"/>
</svg>
