<svg width="16" height="16" viewBox="0 0 16 16" fill="none" xmlns="http://www.w3.org/2000/svg">
<path d="M14 2.5C14.2761 2.5 14.5 2.27614 14.5 2C14.5 1.72386 14.2761 1.5 14 1.5H2C1.72386 1.5 1.5 1.72386 1.5 2C1.5 2.27614 1.72386 2.5 2 2.5H14ZM7.5 4.66699V12.793L4.35352 9.64648C4.15825 9.45122 3.84175 9.45122 3.64648 9.64648C3.45122 9.84175 3.45122 10.1583 3.64648 10.3535L7.64648 14.3535L7.72266 14.416C7.80419 14.4704 7.90056 14.5 8 14.5C8.13261 14.5 8.25975 14.4473 8.35352 14.3535L12.3535 10.3535C12.5488 10.1583 12.5488 9.84175 12.3535 9.64648C12.1583 9.45122 11.8417 9.45122 11.6465 9.64648L8.5 12.793V4.66699C8.5 4.39085 8.27614 4.16699 8 4.16699C7.72386 4.16699 7.5 4.39085 7.5 4.66699Z" fill="currentColor"/>
</svg>
