<svg width="16" height="16" viewBox="0 0 16 16" fill="none" xmlns="http://www.w3.org/2000/svg">
<path d="M9.33514 14.0007H6.66847M12.0018 5.33398C12.0018 4.27312 11.5804 3.2557 10.8302 2.50556C10.0801 1.75541 9.06267 1.33398 8.0018 1.33398C6.94094 1.33398 5.92352 1.75541 5.17338 2.50556C4.42323 3.2557 4.0018 4.27312 4.0018 5.33398C4.0018 7.39411 3.48212 8.80462 2.90158 9.73759C2.41189 10.5246 2.16704 10.9181 2.17602 11.0278C2.18596 11.1494 2.21171 11.1957 2.30965 11.2684C2.39811 11.334 2.79686 11.334 3.59437 11.334H12.4092C13.2067 11.334 13.6055 11.334 13.694 11.2684C13.7919 11.1957 13.8176 11.1494 13.8276 11.0278C13.8366 10.9181 13.5917 10.5246 13.102 9.73759C12.5215 8.80462 12.0018 7.39411 12.0018 5.33398Z" stroke="currentColor" stroke-linecap="round" stroke-linejoin="round"/>
</svg>
