<svg width="16" height="16" viewBox="0 0 16 16" fill="none" xmlns="http://www.w3.org/2000/svg">
<path d="M9.33489 13.501C9.61104 13.501 9.83489 13.7248 9.83489 14.001C9.83472 14.277 9.61093 14.501 9.33489 14.501H6.66888C6.39285 14.501 6.16905 14.277 6.16888 14.001C6.16888 13.7248 6.39274 13.501 6.66888 13.501H9.33489ZM11.5019 5.33398C11.5019 4.40576 11.1328 3.51575 10.4765 2.85938C9.82015 2.20303 8.93009 1.83402 8.00189 1.83398C7.07366 1.83398 6.18365 2.20304 5.52728 2.85938C4.8709 3.51575 4.50189 4.40573 4.50189 5.33398C4.50189 7.48286 3.95836 8.98587 3.32611 10.002C3.10269 10.361 2.93692 10.6302 2.82122 10.8271C3.01076 10.8314 3.26369 10.834 3.59466 10.834H12.4091C12.7397 10.834 12.9921 10.8314 13.1816 10.8271C13.0659 10.6302 12.9009 10.3607 12.6777 10.002C12.0454 8.98587 11.5019 7.48286 11.5019 5.33398ZM12.5019 5.33398C12.5019 7.30535 12.9975 8.62377 13.5263 9.47363C13.7689 9.86345 13.9583 10.1671 14.0849 10.3867C14.1477 10.4957 14.2026 10.5966 14.2421 10.6836C14.2618 10.7269 14.2821 10.7774 14.2978 10.8301C14.3111 10.8749 14.3347 10.9633 14.3261 11.0684C14.3193 11.152 14.3025 11.2795 14.2304 11.4092C14.1584 11.5387 14.0595 11.62 13.9921 11.6699C13.8597 11.7682 13.7029 11.7917 13.6415 11.8008C13.5523 11.814 13.4475 11.8209 13.3368 11.8252C13.1142 11.8339 12.8031 11.834 12.4091 11.834H3.59466C3.20082 11.834 2.88952 11.8339 2.66693 11.8252C2.55625 11.8209 2.45151 11.814 2.36224 11.8008C2.30106 11.7917 2.14432 11.7683 2.01165 11.6699C1.94429 11.6199 1.84443 11.5389 1.77239 11.4092C1.70042 11.2795 1.6845 11.1519 1.67767 11.0684C1.66911 10.9633 1.69167 10.8749 1.70501 10.8301C1.72075 10.7773 1.74195 10.727 1.76165 10.6836C1.80116 10.5966 1.85608 10.4957 1.91888 10.3867C2.04546 10.1671 2.23494 9.86341 2.47747 9.47363C3.00628 8.62377 3.50189 7.30529 3.50189 5.33398C3.50189 4.14071 3.97561 2.99622 4.81927 2.15234C5.66318 1.30843 6.80841 0.833984 8.00189 0.833984C9.19531 0.834024 10.3396 1.30847 11.1835 2.15234C12.0274 2.99625 12.5019 4.14055 12.5019 5.33398Z" fill="currentColor"/>
</svg>
