<svg width="16" height="16" viewBox="0 0 16 16" fill="none" xmlns="http://www.w3.org/2000/svg">
<path d="M5.5 10.5H4C3.17157 10.5 2.5 11.1716 2.5 12C2.5 12.8284 3.17157 13.5 4 13.5C4.82843 13.5 5.5 12.8284 5.5 12V10.5ZM13.5 12C13.5 11.1716 12.8284 10.5 12 10.5H10.5V12C10.5 12.8284 11.1716 13.5 12 13.5C12.8284 13.5 13.5 12.8284 13.5 12ZM6.5 9.5H9.5V6.5H6.5V9.5ZM5.5 4C5.5 3.17157 4.82843 2.5 4 2.5C3.17157 2.5 2.5 3.17157 2.5 4C2.5 4.82843 3.17157 5.5 4 5.5H5.5V4ZM13.5 4C13.5 3.17157 12.8284 2.5 12 2.5C11.1716 2.5 10.5 3.17157 10.5 4V5.5H12C12.8284 5.5 13.5 4.82843 13.5 4ZM14.5 4C14.5 5.38071 13.3807 6.5 12 6.5H10.5V9.5H12C13.3807 9.5 14.5 10.6193 14.5 12C14.5 13.3807 13.3807 14.5 12 14.5C10.6193 14.5 9.5 13.3807 9.5 12V10.5H6.5V12C6.5 13.3807 5.38071 14.5 4 14.5C2.61929 14.5 1.5 13.3807 1.5 12C1.5 10.6193 2.61929 9.5 4 9.5H5.5V6.5H4C2.61929 6.5 1.5 5.38071 1.5 4C1.5 2.61929 2.61929 1.5 4 1.5C5.38071 1.5 6.5 2.61929 6.5 4V5.5H9.5V4C9.5 2.61929 10.6193 1.5 12 1.5C13.3807 1.5 14.5 2.61929 14.5 4Z" fill="currentColor"/>
</svg>
