<svg width="16" height="16" viewBox="0 0 16 16" fill="none" xmlns="http://www.w3.org/2000/svg">
<path d="M13.5 4C13.5 3.17157 12.8284 2.5 12 2.5C11.1716 2.5 10.5 3.17157 10.5 4C10.5 4.82843 11.1716 5.5 12 5.5C12.8284 5.5 13.5 4.82843 13.5 4ZM2.5 12C2.5 12.8284 3.17157 13.5 4 13.5C4.82843 13.5 5.5 12.8284 5.5 12C5.5 11.1716 4.82843 10.5 4 10.5C3.17157 10.5 2.5 11.1716 2.5 12ZM14.5 4C14.5 5.21592 13.6317 6.22762 12.4814 6.45215C12.3728 8.01078 11.7086 9.48476 10.5967 10.5967C9.48476 11.7086 8.01078 12.3728 6.45215 12.4814C6.22762 13.6317 5.21592 14.5 4 14.5C2.61929 14.5 1.5 13.3807 1.5 12C1.5 10.7905 2.35886 9.78142 3.5 9.5498V2C3.5 1.72386 3.72386 1.5 4 1.5C4.27614 1.5 4.5 1.72386 4.5 2V9.5498C5.47264 9.74722 6.23886 10.5098 6.44434 11.4795C7.74028 11.3745 8.96252 10.8148 9.88867 9.88867C10.8148 8.96252 11.3745 7.74028 11.4795 6.44434C10.3487 6.20473 9.5 5.20212 9.5 4C9.5 2.61929 10.6193 1.5 12 1.5C13.3807 1.5 14.5 2.61929 14.5 4Z" fill="currentColor"/>
</svg>
