<svg width="16" height="16" viewBox="0 0 16 16" fill="none" xmlns="http://www.w3.org/2000/svg">
<g clip-path="url(#clip0_43_905)">
<path d="M14.167 7.99902C14.167 11.4047 11.4066 14.1658 8.00098 14.166C4.59522 14.166 1.83398 11.4048 1.83398 7.99902C1.83416 4.59342 4.59533 1.83301 8.00098 1.83301C11.4065 1.83318 14.1668 4.59353 14.167 7.99902ZM7.50098 5.33301V7.99902C7.50098 8.27517 7.72483 8.49902 8.00098 8.49902C8.27697 8.49885 8.50098 8.27506 8.50098 7.99902V5.33301C8.50098 5.05697 8.27697 4.83318 8.00098 4.83301C7.72483 4.83301 7.50098 5.05687 7.50098 5.33301ZM8.00684 11.166C8.28298 11.166 8.50684 10.9422 8.50684 10.666C8.50684 10.3899 8.28298 10.166 8.00684 10.166H8.00098C7.72483 10.166 7.50098 10.3899 7.50098 10.666C7.50098 10.9422 7.72483 11.166 8.00098 11.166H8.00684ZM15.167 7.99902C15.1668 4.04124 11.9588 0.833184 8.00098 0.833008C4.04305 0.833008 0.834161 4.04113 0.833984 7.99902C0.833984 11.9571 4.04294 15.166 8.00098 15.166C11.9589 15.1658 15.167 11.957 15.167 7.99902Z" fill="currentColor"/>
</g>
<defs>
<clipPath id="clip0_43_905">
<rect width="16" height="16" fill="white"/>
</clipPath>
</defs>
</svg>
