<svg width="16" height="16" viewBox="0 0 16 16" fill="none" xmlns="http://www.w3.org/2000/svg">
<path d="M13.5 8.7998V5.2002C13.5 4.63189 13.4998 4.23518 13.4746 3.92676C13.4499 3.62471 13.4039 3.45091 13.3369 3.31934C13.1931 3.03709 12.9629 2.8069 12.6807 2.66309C12.5491 2.59613 12.3753 2.55009 12.0733 2.52539C11.7648 2.50019 11.3681 2.5 10.7998 2.5H5.20021C4.63191 2.5 4.23519 2.50019 3.92677 2.52539C3.62472 2.55009 3.45093 2.59613 3.31935 2.66309C3.03711 2.8069 2.80691 3.03709 2.6631 3.31934C2.59615 3.45091 2.55011 3.62471 2.52541 3.92676C2.50021 4.23518 2.50002 4.63189 2.50002 5.2002V13.5566C2.50002 13.5799 2.50097 13.6022 2.50099 13.623C2.5173 13.61 2.53554 13.5976 2.55373 13.583L4.14455 12.3105C4.45369 12.0632 4.66097 11.8943 4.89748 11.7734C5.09805 11.671 5.31161 11.5961 5.53224 11.5508C5.79245 11.4974 6.06006 11.5 6.45607 11.5H10.7998C11.3681 11.5 11.7648 11.4998 12.0733 11.4746C12.3753 11.4499 12.5491 11.4039 12.6807 11.3369C12.9629 11.1931 13.1931 10.9629 13.3369 10.6807C13.4039 10.5491 13.4499 10.3753 13.4746 10.0732C13.4998 9.76482 13.5 9.36811 13.5 8.7998ZM14.5 8.7998C14.5 9.35161 14.5 9.79571 14.4707 10.1543C14.441 10.5186 14.3784 10.8387 14.2276 11.1348C13.9879 11.6052 13.6052 11.9879 13.1348 12.2275C12.8387 12.3784 12.5187 12.4409 12.1543 12.4707C11.7957 12.5 11.3516 12.5 10.7998 12.5H6.45607C6.02015 12.5 5.87111 12.502 5.73342 12.5303C5.60107 12.5574 5.47288 12.6026 5.35256 12.6641C5.22736 12.728 5.10994 12.8195 4.76955 13.0918L3.17873 14.3643C3.04791 14.4689 2.9228 14.5697 2.81545 14.6406C2.71571 14.7065 2.54687 14.8064 2.334 14.8066C2.08031 14.8068 1.83993 14.6914 1.68166 14.4932C1.54893 14.3268 1.52159 14.1327 1.51076 14.0137C1.49911 13.8854 1.50002 13.7243 1.50002 13.5566V5.2002C1.50002 4.64839 1.50002 4.20429 1.52931 3.8457C1.55908 3.48136 1.62165 3.16133 1.77248 2.86523C2.01216 2.39483 2.39485 2.01214 2.86525 1.77246C3.16134 1.62163 3.48137 1.55907 3.84572 1.5293C4.20431 1.5 4.64841 1.5 5.20021 1.5H10.7998C11.3516 1.5 11.7957 1.5 12.1543 1.5293C12.5187 1.55907 12.8387 1.62163 13.1348 1.77246C13.6052 2.01214 13.9879 2.39483 14.2276 2.86523C14.3784 3.16133 14.441 3.48136 14.4707 3.8457C14.5 4.20429 14.5 4.64839 14.5 5.2002V8.7998Z" fill="currentColor"/>
</svg>
