<svg width="16" height="16" viewBox="0 0 16 16" fill="none" xmlns="http://www.w3.org/2000/svg">
<path d="M4.66667 5.66667H8M4.66667 8H10M6.45583 12H10.8C11.9201 12 12.4802 12 12.908 11.782C13.2843 11.5903 13.5903 11.2843 13.782 10.908C14 10.4802 14 9.9201 14 8.8V5.2C14 4.07989 14 3.51984 13.782 3.09202C13.5903 2.71569 13.2843 2.40973 12.908 2.21799C12.4802 2 11.9201 2 10.8 2H5.2C4.0799 2 3.51984 2 3.09202 2.21799C2.71569 2.40973 2.40973 2.71569 2.21799 3.09202C2 3.51984 2 4.0799 2 5.2V13.557C2 13.9122 2 14.0898 2.07282 14.1811C2.13615 14.2604 2.23218 14.3066 2.33369 14.3065C2.45042 14.3063 2.58911 14.1954 2.8665 13.9735L4.45681 12.7012C4.78168 12.4413 4.94411 12.3114 5.12499 12.219C5.28547 12.137 5.45628 12.0771 5.63281 12.0408C5.83178 12 6.0398 12 6.45583 12Z" stroke="currentColor" stroke-linecap="round" stroke-linejoin="round"/>
</svg>
