<svg width="16" height="16" viewBox="0 0 16 16" fill="none" xmlns="http://www.w3.org/2000/svg">
<path d="M13.3339 12.167C13.6098 12.1671 13.8338 12.3911 13.8339 12.667C13.8339 12.943 13.6099 13.1668 13.3339 13.167H7.99996C7.72397 13.1668 7.49996 12.943 7.49996 12.667C7.50014 12.3911 7.72408 12.1671 7.99996 12.167H13.3339ZM2.31344 2.98043C2.5087 2.78517 2.82521 2.78517 3.02047 2.98043L7.02047 6.98043C7.11424 7.0742 7.16695 7.20134 7.16695 7.33395C7.16695 7.46655 7.11424 7.59369 7.02047 7.68746L3.02047 11.6875C2.82521 11.8827 2.5087 11.8827 2.31344 11.6875C2.11818 11.4922 2.11818 11.1757 2.31344 10.9804L5.95992 7.33395L2.31344 3.68746C2.11818 3.4922 2.11818 3.17569 2.31344 2.98043Z" fill="currentColor"/>
</svg>
